<svg width="2048" height="895" viewBox="0 0 2048 895" fill="none" xmlns="http://www.w3.org/2000/svg">
<g clip-path="url(#clip0_1865_1399)">
<path d="M1127.57 592.029C1109.92 590.424 1093.23 584.486 1077.5 574.214L1072.2 635.845C1070.92 650.29 1065.46 661.846 1055.83 670.512C1046.52 679.5 1034.97 683.352 1021.16 682.068C1007.68 681.105 996.93 675.327 988.905 664.734C981.201 654.463 977.991 642.104 979.275 627.66L1004.31 342.135C1005.6 327.69 1010.89 316.134 1020.2 307.467C1029.83 298.479 1041.55 294.467 1055.35 295.43C1072.04 297.035 1084.08 304.418 1091.46 317.578C1109.12 304.739 1130.46 299.442 1155.5 301.689C1191.77 304.899 1220.02 321.27 1240.24 350.801C1257.9 376.802 1266.73 407.939 1266.73 444.211C1266.73 484.977 1254.21 520.126 1229.17 549.658C1201.89 581.436 1168.02 595.56 1127.57 592.029ZM1136.72 387.876C1123.56 386.592 1112.65 390.926 1103.98 400.877C1095.64 410.827 1090.82 423.988 1089.54 440.359C1087.93 457.051 1090.34 471.496 1096.76 483.693C1103.5 495.891 1113.29 502.632 1126.13 503.916C1138.65 504.879 1149.24 500.064 1157.91 489.471C1166.58 478.878 1171.71 465.718 1173.32 449.989C1174.6 433.939 1171.87 419.815 1165.13 407.618C1158.39 395.42 1148.92 388.839 1136.72 387.876Z" fill="#373737"/>
<path d="M1344.66 300.726C1330.86 301.689 1318.66 297.195 1308.07 287.244C1297.48 277.294 1291.7 265.417 1290.74 251.614C1290.09 238.453 1294.59 226.576 1304.22 215.984C1314.17 205.391 1325.89 199.773 1339.37 199.131C1352.85 198.168 1364.89 202.502 1375.48 212.132C1386.39 221.44 1392.17 232.836 1392.81 246.318C1393.46 260.441 1389.12 272.96 1379.81 283.874C1370.5 294.467 1358.79 300.084 1344.66 300.726ZM1359.59 588.177C1345.79 589.14 1334.23 584.967 1324.92 575.658C1315.93 566.671 1311.12 554.954 1310.48 540.509L1300.85 355.616C1299.89 341.172 1303.42 328.974 1311.44 319.023C1319.79 309.072 1330.86 303.615 1344.66 302.652C1358.47 302.01 1369.86 306.344 1378.85 315.652C1388.16 324.64 1393.13 336.357 1393.78 350.801L1403.89 535.695C1404.53 550.139 1400.68 562.337 1392.33 572.288C1384.31 582.239 1373.39 587.535 1359.59 588.177Z" fill="#373737"/>
<path d="M1539.63 443.248C1547.33 421.099 1561.13 386.271 1581.04 338.764C1589.38 317.578 1604.31 307.949 1625.81 309.875C1638.65 310.838 1649.25 315.492 1657.59 323.838C1667.22 333.468 1671.4 345.345 1670.11 359.468C1669.47 367.172 1667.06 375.197 1662.89 383.543L1577.66 555.917C1566.11 579.35 1548.78 590.103 1525.66 588.177C1502.87 586.251 1487.79 572.609 1480.4 547.25L1426.48 362.839C1423.91 353.851 1422.95 345.505 1423.59 337.801C1424.55 323.677 1430.49 312.764 1441.4 305.06C1451.35 298.319 1462.59 295.43 1475.11 296.393C1496.29 298.319 1509.45 310.517 1514.59 332.986L1539.63 443.248Z" fill="#373737"/>
<path d="M1935.63 342.135L1887.48 649.808C1883.63 674.525 1872.07 689.13 1852.82 693.624C1848 694.908 1843.35 695.55 1838.85 695.55C1828.26 695.55 1818.95 692.501 1810.93 686.402C1803.22 680.624 1798.41 673.08 1796.48 663.772C1795.52 660.241 1795.04 655.747 1795.04 650.29C1795.04 637.45 1797.12 619.314 1801.3 595.881C1803.54 584.967 1805.63 574.053 1807.55 563.14L1692.96 397.988C1686.22 388.358 1682.85 378.728 1682.85 369.098C1682.85 358.826 1686.7 349.517 1694.4 341.172C1701.15 333.468 1709.01 328.653 1718 326.727C1722.17 325.764 1726.18 325.282 1730.03 325.282C1746.73 325.282 1760.05 332.826 1770 347.912L1828.26 437.47L1844.15 330.579C1846.07 318.381 1851.21 308.27 1859.56 300.245C1868.22 291.899 1878.49 287.726 1890.37 287.726C1900.32 287.726 1909.31 290.294 1917.34 295.43C1926.64 301.529 1932.42 309.554 1934.67 319.504C1936.59 327.208 1936.92 334.752 1935.63 342.135Z" fill="#373737"/>
<rect x="112" y="64" width="767" height="767" rx="209" fill="#7EFE9F"/>
<rect x="397.773" y="255" width="318" height="318" rx="82" fill="#373737"/>
<g filter="url(#filter0_dii_1865_1399)">
<path d="M388.143 669.339C382.643 647.799 363.293 638.529 342.543 634.549C320.943 630.419 299.293 626.389 279.663 616.879C263.963 609.266 250.186 598.916 238.333 585.829C222.283 568.099 214.443 549.139 217.743 525.579C219.423 513.559 224.36 502.832 232.553 493.399C234.36 491.319 238.026 487.893 243.553 483.119C247.233 479.939 256.02 472.569 269.913 461.009C279.913 452.679 287.903 442.579 293.673 430.649C295.453 426.956 297.59 420.336 300.083 410.789C306.196 387.316 313.15 362.633 320.943 336.739C326.553 318.109 334.723 298.759 344.923 283.079C357.163 264.269 372.973 245.279 389.403 229.939C417.59 203.646 450.323 184.719 487.603 173.159C493.683 171.273 500.25 169.693 507.303 168.419C540.523 162.413 572.796 162.529 604.123 168.769C634.323 174.789 662.623 188.039 687.373 206.019C692.346 209.632 698.836 215.216 706.843 222.769C720.063 235.249 731.99 250.136 742.623 267.429C762.963 300.519 773.603 340.839 775.393 380.069C776.586 406.209 774.563 431.566 769.323 456.139C765.403 474.526 760.123 492.502 753.483 510.069C743.853 535.569 730.613 560.269 715.843 581.679C697.913 607.669 675.543 631.599 650.063 651.389C631.97 665.436 613.463 677.672 594.543 688.099C586.856 692.339 579.403 696.053 572.183 699.239C538.25 714.233 503.536 723.849 468.043 728.089C450.883 730.139 433.333 729.459 417.123 724.409C400.633 719.279 390.263 706.999 389.473 689.369C389.163 682.599 389.533 674.799 388.143 669.339ZM413.823 341.919C410.273 360.169 410.833 379.479 417.753 396.759C423.133 410.209 434.563 421.969 448.893 424.759C463.223 427.549 478.223 420.929 488.263 410.479C501.143 397.049 508.913 379.359 512.463 361.109C516.023 342.859 515.453 323.549 508.533 306.269C503.153 292.829 491.723 281.059 477.393 278.269C463.063 275.479 448.063 282.109 438.023 292.559C425.143 305.979 417.373 323.669 413.823 341.919ZM577.043 407.349C580.273 417.069 590.923 418.049 598.723 413.549C604.623 410.136 607.633 408.396 607.753 408.329C624.903 398.799 646.823 400.479 662.503 412.569C668.713 417.359 673.363 422.819 681.603 421.409C686.236 420.616 689.43 418.233 691.183 414.259C700.473 393.229 676.883 373.049 659.113 367.499C636.473 360.439 607.293 362.069 588.803 378.779C581.313 385.549 573.683 397.219 577.043 407.349ZM616.383 465.009C613.393 466.409 610.393 469.639 608.423 472.239C599.27 484.273 587.686 493.932 573.673 501.219C554.973 510.949 532.083 512.709 511.283 509.069C492.87 505.849 476.923 497.883 463.443 485.169C459.656 481.596 456.76 478.239 454.753 475.099C450.483 468.429 447.483 461.989 438.813 461.179C428.726 460.239 421.956 464.349 418.503 473.509C413.263 487.379 423.823 501.499 432.373 511.249C441.046 521.149 451.6 529.289 464.033 535.669C505.163 556.759 553.943 559.249 594.563 535.909C611.423 526.229 627.193 513.109 636.643 496.709C641.313 488.599 643.293 479.379 637.923 470.959C633.423 463.919 623.843 461.519 616.383 465.009Z" fill="white"/>
</g>
</g>
<defs>
<filter id="filter0_dii_1865_1399" x="67.1475" y="89.0737" width="858.43" height="864.873" filterUnits="userSpaceOnUse" color-interpolation-filters="sRGB">
<feFlood flood-opacity="0" result="BackgroundImageFix"/>
<feColorMatrix in="SourceAlpha" type="matrix" values="0 0 0 0 0 0 0 0 0 0 0 0 0 0 0 0 0 0 127 0" result="hardAlpha"/>
<feOffset dy="74.9263"/>
<feGaussianBlur stdDeviation="74.9263"/>
<feColorMatrix type="matrix" values="0 0 0 0 0.2 0 0 0 0 0.2 0 0 0 0 0.2 0 0 0 0.1315 0"/>
<feBlend mode="normal" in2="BackgroundImageFix" result="effect1_dropShadow_1865_1399"/>
<feBlend mode="normal" in="SourceGraphic" in2="effect1_dropShadow_1865_1399" result="shape"/>
<feColorMatrix in="SourceAlpha" type="matrix" values="0 0 0 0 0 0 0 0 0 0 0 0 0 0 0 0 0 0 127 0" result="hardAlpha"/>
<feOffset dy="18.1488"/>
<feGaussianBlur stdDeviation="9.0744"/>
<feComposite in2="hardAlpha" operator="arithmetic" k2="-1" k3="1"/>
<feColorMatrix type="matrix" values="0 0 0 0 1 0 0 0 0 1 0 0 0 0 1 0 0 0 1 0"/>
<feBlend mode="normal" in2="shape" result="effect2_innerShadow_1865_1399"/>
<feColorMatrix in="SourceAlpha" type="matrix" values="0 0 0 0 0 0 0 0 0 0 0 0 0 0 0 0 0 0 127 0" result="hardAlpha"/>
<feOffset dy="-18.1488"/>
<feGaussianBlur stdDeviation="9.0744"/>
<feComposite in2="hardAlpha" operator="arithmetic" k2="-1" k3="1"/>
<feColorMatrix type="matrix" values="0 0 0 0 0.954063 0 0 0 0 0.954063 0 0 0 0 0.954063 0 0 0 1 0"/>
<feBlend mode="normal" in2="effect2_innerShadow_1865_1399" result="effect3_innerShadow_1865_1399"/>
</filter>
<clipPath id="clip0_1865_1399">
<rect width="2048" height="895" fill="white"/>
</clipPath>
</defs>
</svg>
