<svg width="52" height="54" viewBox="0 0 52 54" fill="none" xmlns="http://www.w3.org/2000/svg">
<rect x="3" width="46.0718" height="46.0718" rx="12.5541" fill="#7EFE9F"/>
<rect x="20.1711" y="11.4761" width="19.1015" height="19.1015" rx="4.92553" fill="#373737"/>
<g filter="url(#filter0_dii_2663_361)">
<path d="M19.5924 36.3637C19.262 35.0699 18.0997 34.513 16.8533 34.274C15.5558 34.0259 14.2554 33.7838 13.0763 33.2126C12.1332 32.7553 11.3057 32.1336 10.5937 31.3475C9.62959 30.2825 9.15866 29.1436 9.35688 27.7284C9.4578 27.0064 9.75433 26.3621 10.2465 25.7955C10.355 25.6705 10.5753 25.4647 10.9072 25.178C11.1283 24.9869 11.6561 24.5442 12.4906 23.8499C13.0913 23.3495 13.5712 22.7428 13.9178 22.0262C14.0247 21.8044 14.1531 21.4067 14.3028 20.8333C14.6701 19.4233 15.0877 17.9406 15.5558 16.3853C15.8928 15.2662 16.3836 14.1039 16.9963 13.1621C17.7315 12.0322 18.6812 10.8915 19.6681 9.97008C21.3612 8.3907 23.3274 7.25383 25.5667 6.55945C25.9319 6.44612 26.3263 6.35121 26.75 6.27473C28.7455 5.91392 30.684 5.92093 32.5658 6.29575C34.3798 6.65736 36.0797 7.45325 37.5664 8.53326C37.8651 8.75031 38.2549 9.08568 38.7359 9.53939C39.53 10.289 40.2464 11.1832 40.8851 12.222C42.1069 14.2096 42.746 16.6316 42.8535 18.988C42.9252 20.5582 42.8037 22.0813 42.4889 23.5573C42.2534 24.6618 41.9363 25.7416 41.5374 26.7968C40.959 28.3285 40.1637 29.8122 39.2765 31.0982C38.1995 32.6594 36.8558 34.0968 35.3253 35.2855C34.2384 36.1293 33.1268 36.8643 31.9903 37.4906C31.5286 37.7453 31.0809 37.9683 30.6472 38.1597C28.6089 39.0604 26.5238 39.638 24.3918 39.8927C23.361 40.0158 22.3068 39.975 21.3331 39.6716C20.3426 39.3635 19.7197 38.6259 19.6723 37.5669C19.6537 37.1602 19.6759 36.6917 19.5924 36.3637ZM21.1349 16.6964C20.9217 17.7927 20.9553 18.9526 21.371 19.9905C21.6941 20.7984 22.3807 21.5048 23.2415 21.6724C24.1022 21.84 25.0033 21.4424 25.6063 20.8147C26.38 20.008 26.8467 18.9454 27.06 17.8491C27.2738 16.7529 27.2396 15.593 26.8239 14.555C26.5007 13.7477 25.8142 13.0407 24.9534 12.8731C24.0926 12.7055 23.1916 13.1038 22.5885 13.7315C21.8149 14.5376 21.3482 15.6002 21.1349 16.6964ZM30.9391 20.6266C31.1331 21.2105 31.7729 21.2694 32.2414 20.9991C32.5958 20.794 32.7766 20.6895 32.7838 20.6855C33.814 20.1131 35.1306 20.214 36.0725 20.9402C36.4455 21.2279 36.7248 21.5559 37.2198 21.4712C37.4981 21.4235 37.6899 21.2804 37.7952 21.0417C38.3533 19.7785 36.9363 18.5663 35.8689 18.233C34.5089 17.8089 32.7562 17.9068 31.6455 18.9105C31.1956 19.3172 30.7373 20.0182 30.9391 20.6266ZM33.3022 24.0901C33.1226 24.1742 32.9424 24.3683 32.824 24.5244C32.2742 25.2472 31.5784 25.8275 30.7367 26.2652C29.6134 26.8496 28.2385 26.9554 26.9891 26.7367C25.883 26.5433 24.9252 26.0648 24.1155 25.3011C23.888 25.0865 23.714 24.8848 23.5935 24.6962C23.337 24.2956 23.1568 23.9087 22.636 23.8601C22.0301 23.8036 21.6235 24.0505 21.416 24.6007C21.1013 25.4338 21.7356 26.282 22.2492 26.8677C22.7702 27.4623 23.4041 27.9513 24.1509 28.3345C26.6215 29.6013 29.5516 29.7509 31.9915 28.3489C33.0042 27.7675 33.9515 26.9794 34.5191 25.9943C34.7997 25.5071 34.9186 24.9533 34.596 24.4475C34.3257 24.0247 33.7503 23.8805 33.3022 24.0901Z" fill="white"/>
</g>
<defs>
<filter id="filter0_dii_2663_361" x="0.310993" y="1.50865" width="51.5638" height="51.9508" filterUnits="userSpaceOnUse" color-interpolation-filters="sRGB">
<feFlood flood-opacity="0" result="BackgroundImageFix"/>
<feColorMatrix in="SourceAlpha" type="matrix" values="0 0 0 0 0 0 0 0 0 0 0 0 0 0 0 0 0 0 127 0" result="hardAlpha"/>
<feOffset dy="4.50063"/>
<feGaussianBlur stdDeviation="4.50063"/>
<feColorMatrix type="matrix" values="0 0 0 0 0.2 0 0 0 0 0.2 0 0 0 0 0.2 0 0 0 0.1315 0"/>
<feBlend mode="normal" in2="BackgroundImageFix" result="effect1_dropShadow_2663_361"/>
<feBlend mode="normal" in="SourceGraphic" in2="effect1_dropShadow_2663_361" result="shape"/>
<feColorMatrix in="SourceAlpha" type="matrix" values="0 0 0 0 0 0 0 0 0 0 0 0 0 0 0 0 0 0 127 0" result="hardAlpha"/>
<feOffset dy="1.09015"/>
<feGaussianBlur stdDeviation="0.545076"/>
<feComposite in2="hardAlpha" operator="arithmetic" k2="-1" k3="1"/>
<feColorMatrix type="matrix" values="0 0 0 0 1 0 0 0 0 1 0 0 0 0 1 0 0 0 1 0"/>
<feBlend mode="normal" in2="shape" result="effect2_innerShadow_2663_361"/>
<feColorMatrix in="SourceAlpha" type="matrix" values="0 0 0 0 0 0 0 0 0 0 0 0 0 0 0 0 0 0 127 0" result="hardAlpha"/>
<feOffset dy="-1.09015"/>
<feGaussianBlur stdDeviation="0.545076"/>
<feComposite in2="hardAlpha" operator="arithmetic" k2="-1" k3="1"/>
<feColorMatrix type="matrix" values="0 0 0 0 0.954063 0 0 0 0 0.954063 0 0 0 0 0.954063 0 0 0 1 0"/>
<feBlend mode="normal" in2="effect2_innerShadow_2663_361" result="effect3_innerShadow_2663_361"/>
</filter>
</defs>
</svg>
