<svg width="250" height="250" viewBox="0 0 250 250" fill="none" xmlns="http://www.w3.org/2000/svg">
<path d="M80.4513 216.44C78.1872 207.598 70.2217 203.793 61.68 202.159C52.7883 200.464 43.876 198.809 35.7953 194.905C29.3324 191.78 23.6612 187.532 18.7818 182.159C12.1747 174.881 8.9474 167.098 10.3058 157.427C10.9974 152.493 13.0296 148.09 16.4024 144.217C17.1461 143.363 18.6555 141.957 20.9306 139.997C22.4455 138.692 26.0625 135.667 31.7817 130.921C35.8982 127.502 39.1873 123.356 41.5625 118.459C42.2953 116.943 43.1749 114.225 44.2012 110.306C46.7178 100.67 49.5802 90.538 52.7883 79.9089C55.0977 72.2613 58.4608 64.3182 62.6597 57.8816C67.6983 50.1602 74.2065 42.3648 80.97 36.0678C92.573 25.2745 106.048 17.5052 121.394 12.7598C123.897 11.9853 126.6 11.3368 129.504 10.8141C143.179 8.34834 156.464 8.39623 169.36 10.9577C181.792 13.4289 193.441 18.868 203.63 26.2487C205.677 27.732 208.349 30.0239 211.645 33.1245C217.087 38.2475 221.996 44.3585 226.373 51.4573C234.746 65.0407 239.126 81.5919 239.863 97.6957C240.355 108.426 239.522 118.835 237.365 128.922C235.751 136.47 233.577 143.849 230.844 151.06C226.88 161.528 221.43 171.667 215.349 180.456C207.969 191.125 198.76 200.948 188.271 209.072C180.823 214.838 173.205 219.861 165.416 224.141C162.252 225.882 159.184 227.406 156.212 228.714C142.243 234.869 127.953 238.816 113.342 240.557C106.278 241.398 99.0538 241.119 92.3809 239.046C85.5928 236.94 81.324 231.899 80.9988 224.662C80.8712 221.883 81.0235 218.681 80.4513 216.44ZM91.0225 82.0352C89.5611 89.5268 89.7916 97.4535 92.6403 104.547C94.855 110.068 99.5601 114.896 105.459 116.041C111.358 117.186 117.533 114.469 121.666 110.179C126.968 104.666 130.166 97.4042 131.628 89.9127C133.093 82.4211 132.859 74.4944 130.01 67.401C127.795 61.8839 123.09 57.0524 117.191 55.9071C111.292 54.7618 105.117 57.4834 100.984 61.7731C95.6824 67.282 92.4838 74.5437 91.0225 82.0352ZM158.212 108.894C159.542 112.884 163.926 113.286 167.137 111.439C169.566 110.038 170.805 109.324 170.854 109.296C177.914 105.384 186.937 106.074 193.392 111.037C195.948 113.003 197.863 115.244 201.255 114.666C203.162 114.34 204.476 113.362 205.198 111.731C209.022 103.098 199.312 94.814 191.997 92.5357C182.677 89.6376 170.665 90.3067 163.053 97.1661C159.97 99.9452 156.829 104.736 158.212 108.894ZM174.407 132.563C173.176 133.138 171.941 134.464 171.13 135.531C167.362 140.471 162.594 144.436 156.825 147.427C149.127 151.421 139.704 152.144 131.142 150.65C123.562 149.328 116.998 146.058 111.449 140.839C109.89 139.372 108.697 137.994 107.871 136.705C106.114 133.967 104.879 131.324 101.31 130.991C97.1575 130.605 94.3706 132.292 92.949 136.052C90.792 141.746 95.139 147.542 98.6586 151.545C102.229 155.609 106.573 158.95 111.692 161.569C128.623 170.226 148.703 171.248 165.424 161.667C172.365 157.694 178.857 152.308 182.747 145.576C184.669 142.247 185.484 138.462 183.274 135.006C181.421 132.116 177.478 131.131 174.407 132.563Z" fill="black"/>
</svg>
