<svg width="464" height="448" viewBox="0 0 464 448" fill="none" xmlns="http://www.w3.org/2000/svg">
<g filter="url(#filter0_d_2822_8987)">
<path fill-rule="evenodd" clip-rule="evenodd" d="M252.203 84.6468C233.957 84.6472 217.759 93.4082 207.582 106.952C200.589 101.699 191.895 98.5883 182.476 98.5883C159.37 98.5886 140.641 117.321 140.641 140.426C140.642 146.263 141.839 151.82 143.999 156.867C117.888 164.463 98.8039 188.566 98.8038 217.129C98.8038 238.93 109.924 258.131 126.799 269.379C128.577 298.582 152.818 321.718 182.469 321.718C188.145 321.718 193.622 320.869 198.782 319.294C208.878 329.403 222.832 335.659 238.248 335.66C258.26 335.66 275.811 325.12 285.653 309.291C303.444 317.49 322.409 316.434 334.061 304.868C347.359 291.668 347.046 268.84 334.879 249.019C357.149 233.187 369.413 209.94 364.546 187.396C359.43 163.698 336.751 147.1 307.936 142.781C307.968 142.001 307.986 141.217 307.986 140.429C307.986 109.622 283.011 84.6468 252.203 84.6468Z" fill="#FF392B"/>
<path d="M313.281 138.299C312.158 105.533 285.243 79.3151 252.203 79.3149L252.203 79.3148C234.028 79.3153 217.708 87.255 206.52 99.8368C199.477 95.6572 191.251 93.2556 182.476 93.2556L181.866 93.2595C156.096 93.5865 135.309 114.58 135.309 140.426C135.309 144.976 135.958 149.379 137.165 153.549C111.616 163.357 93.4718 188.116 93.4716 217.129C93.4716 239.849 104.609 259.961 121.694 272.322C124.888 303.074 150.873 327.05 182.469 327.05C187.577 327.05 192.545 326.419 197.296 325.234C208.129 335.021 222.495 340.991 238.249 340.992C258.538 340.991 276.512 331.1 287.621 315.898C305.556 322.745 325.053 321.322 337.818 308.652L337.818 308.652C352.5 294.076 352.401 270.607 341.833 250.469C362.828 233.917 374.915 210.156 369.759 186.27L369.62 185.648C363.925 160.723 341.134 143.796 313.281 138.299Z" stroke="white" stroke-width="10.6644"/>
</g>
<path d="M162.383 189C167.534 195.254 181.808 204.894 197.702 193.415M236.332 196.726C241.483 202.98 255.758 212.62 271.651 201.141M201.013 228.734C206.164 222.48 212.712 217.255 228.606 228.734" stroke="black" stroke-width="14.267" stroke-linecap="round"/>
<ellipse cx="154" cy="228.5" rx="14" ry="15.5" transform="rotate(-11.2189 154 228.5)" fill="black" fill-opacity="0.2"/>
<ellipse cx="276.067" cy="234.254" rx="13.2446" ry="15.4521" transform="rotate(10.2817 276.067 234.254)" fill="black" fill-opacity="0.2"/>
<defs>
<filter id="filter0_d_2822_8987" x="0.69046" y="0.753431" width="463.043" height="447.238" filterUnits="userSpaceOnUse" color-interpolation-filters="sRGB">
<feFlood flood-opacity="0" result="BackgroundImageFix"/>
<feColorMatrix in="SourceAlpha" type="matrix" values="0 0 0 0 0 0 0 0 0 0 0 0 0 0 0 0 0 0 127 0" result="hardAlpha"/>
<feOffset dy="14.2192"/>
<feGaussianBlur stdDeviation="43.7241"/>
<feComposite in2="hardAlpha" operator="out"/>
<feColorMatrix type="matrix" values="0 0 0 0 0 0 0 0 0 0 0 0 0 0 0 0 0 0 0.1 0"/>
<feBlend mode="normal" in2="BackgroundImageFix" result="effect1_dropShadow_2822_8987"/>
<feBlend mode="normal" in="SourceGraphic" in2="effect1_dropShadow_2822_8987" result="shape"/>
</filter>
</defs>
</svg>
