<svg width="118" height="113" viewBox="0 0 118 113" fill="none" xmlns="http://www.w3.org/2000/svg">
<g filter="url(#filter0_d_717_7030)">
<path fill-rule="evenodd" clip-rule="evenodd" d="M45.8013 22.9091C50.3967 21.6586 55.0768 22.7553 58.5681 25.4692C59.9692 23.6668 61.9454 22.287 64.3177 21.6414C70.1366 20.0581 76.1371 23.4919 77.7206 29.3108C78.1204 30.7803 78.1996 32.2611 78.0019 33.6797C85.0983 33.8033 91.5558 38.5661 93.5133 45.7593C95.0074 51.2502 93.5222 56.8477 90.0428 60.837C91.597 68.314 87.0779 75.8022 79.6101 77.8344C78.1811 78.2233 76.7438 78.3844 75.3366 78.3413C73.4867 81.5796 70.4009 84.1115 66.5181 85.1682C61.4779 86.5397 56.3357 85.088 52.772 81.7756C48.8537 85.0595 44.0053 86.0933 40.2782 83.9791C36.0251 81.5665 34.5388 75.7967 36.2437 69.9718C29.5505 67.5108 24.8692 62.497 24.5498 56.4862C24.2141 50.167 28.7883 44.4315 35.75 41.369C35.6884 41.1748 35.6299 40.9787 35.5759 40.7803C33.4645 33.0217 38.0426 25.0205 45.8013 22.9091Z" fill="#1AF0BD"/>
<path d="M45.4624 21.6644C37.1684 23.9215 32.2144 32.3619 34.2155 40.6631C27.5055 43.9651 22.9055 49.8475 23.2618 56.5549C23.599 62.8981 28.2728 68.0404 34.7104 70.751C33.4013 76.5463 34.9757 82.4545 39.6418 85.1013C43.7003 87.4034 48.6963 86.4191 52.7335 83.4445C56.5544 86.5279 61.7528 87.8014 66.857 86.4124C70.8192 85.3341 74.0198 82.8424 76.0628 79.6322C77.3489 79.6092 78.6524 79.4315 79.9484 79.0789C87.8705 76.923 92.7433 69.1276 91.4216 61.1986C94.8787 56.9361 96.3104 51.1254 94.758 45.4203C92.7723 38.1239 86.4955 33.1492 79.3912 32.4686C79.4185 31.3157 79.2828 30.1401 78.9651 28.9724C77.1947 22.4665 70.4858 18.6273 63.9797 20.3974C61.7585 21.0018 59.8469 22.1846 58.3637 23.7373C54.6961 21.3147 50.0405 20.4186 45.4624 21.6644Z" stroke="white" stroke-width="2.57919"/>
</g>
<circle cx="3.86879" cy="3.86879" r="3.86879" transform="matrix(-0.885538 0.464568 0.464568 0.885538 67.2853 41.6415)" fill="black"/>
<circle cx="3.86879" cy="3.86879" r="3.86879" transform="matrix(-0.885538 0.464568 0.464568 0.885538 51.2621 48.1145)" fill="black"/>
<circle cx="3.86879" cy="3.86879" r="3.00906" transform="matrix(-0.885538 0.464568 0.464568 0.885538 62.1056 52.1237)" stroke="black" stroke-width="1.71946"/>
<g clip-path="url(#clip0_717_7030)">
<path d="M31.5353 26.3595C31.376 26.4153 31.2072 26.4389 31.0387 26.4291C30.8703 26.4193 30.7054 26.3763 30.5536 26.3025C30.4019 26.2286 30.2662 26.1255 30.1546 25.999C30.0429 25.8724 29.9573 25.7251 29.9029 25.5653L28.5495 21.6983C28.4375 21.3782 28.4572 21.0268 28.6043 20.7214C28.7513 20.4159 29.0138 20.1814 29.3338 20.0694C29.6538 19.9573 30.0052 19.9771 30.3107 20.1241C30.6161 20.2712 30.8507 20.5336 30.9627 20.8537L32.3161 24.7207C32.3732 24.8795 32.3982 25.0481 32.3898 25.2166C32.3814 25.3852 32.3396 25.5504 32.2671 25.7028C32.1945 25.8551 32.0924 25.9916 31.9668 26.1043C31.8412 26.217 31.6945 26.3038 31.5353 26.3595ZM36.6915 24.566C36.6507 24.7875 36.5516 24.9941 36.4045 25.1646C36.2574 25.3352 36.0674 25.4634 35.8543 25.5362C35.6428 25.6094 35.4161 25.6276 35.1956 25.5891C35.0306 25.5573 34.8734 25.4933 34.7331 25.4007C34.5928 25.3082 34.4722 25.1888 34.378 25.0496C34.2839 24.9103 34.2182 24.7538 34.1846 24.5891C34.1511 24.4244 34.1503 24.2547 34.1824 24.0897L34.4648 22.581C34.4954 22.4154 34.5585 22.2575 34.6504 22.1164C34.7422 21.9752 34.8611 21.8536 35.0001 21.7586C35.1391 21.6635 35.2955 21.5968 35.4603 21.5624C35.6252 21.5279 35.7952 21.5264 35.9606 21.5579C36.2937 21.6224 36.588 21.8156 36.7795 22.0956C36.9711 22.3757 37.0445 22.72 36.9838 23.0538L36.6915 24.566ZM41.4744 25.9561L40.471 27.1177C40.316 27.2751 40.1222 27.3888 39.9092 27.4475C39.6969 27.5214 39.469 27.5384 39.248 27.4969C39.0271 27.4555 38.8208 27.3569 38.6497 27.2111C38.522 27.1014 38.4171 26.9675 38.3413 26.8172C38.2654 26.6668 38.22 26.503 38.2076 26.335C38.1952 26.1671 38.2162 25.9984 38.2692 25.8385C38.3223 25.6787 38.4064 25.5309 38.5167 25.4037L39.5235 24.252C39.6333 24.1242 39.7671 24.0194 39.9175 23.9435C40.0678 23.8676 40.2317 23.8222 40.3996 23.8099C40.5676 23.7975 40.7363 23.8184 40.8961 23.8715C41.056 23.9245 41.2037 24.0087 41.331 24.119C41.4614 24.2299 41.5687 24.3655 41.6465 24.5181C41.7244 24.6706 41.7713 24.837 41.7847 25.0077C41.798 25.1784 41.7774 25.3501 41.7242 25.5129C41.6709 25.6756 41.586 25.8262 41.4744 25.9561ZM43.9147 30.7083L42.4609 31.2172C42.1489 31.2956 41.8188 31.2546 41.5355 31.1021C41.2522 30.9496 41.0362 30.6967 40.9299 30.393C40.8236 30.0894 40.8348 29.7569 40.9611 29.461C41.0875 29.1652 41.3199 28.9273 41.6128 28.7941L43.0667 28.2852C43.3787 28.2067 43.7087 28.2478 43.992 28.4003C44.2753 28.5528 44.4913 28.8057 44.5976 29.1094C44.7039 29.413 44.6927 29.7455 44.5664 30.0413C44.44 30.3372 44.2076 30.5751 43.9147 30.7083ZM42.6136 33.2397L44.1258 33.532C44.2971 33.5562 44.4616 33.6149 44.6095 33.7046C44.7573 33.7942 44.8855 33.913 44.9861 34.0536C45.0868 34.1942 45.1579 34.3538 45.1951 34.5226C45.2323 34.6915 45.2348 34.8662 45.2026 35.0361C45.1703 35.206 45.104 35.3676 45.0075 35.5111C44.911 35.6546 44.7864 35.777 44.6412 35.8709C44.496 35.9649 44.3333 36.0284 44.1628 36.0577C43.9924 36.0869 43.8178 36.0813 43.6496 36.0411L42.1409 35.7587C41.9753 35.7281 41.8174 35.665 41.6762 35.5731C41.5351 35.4812 41.4135 35.3624 41.3184 35.2234C41.2234 35.0844 41.1567 34.928 41.1222 34.7631C41.0878 34.5983 41.0863 34.4283 41.1177 34.2628C41.1847 33.931 41.3785 33.6385 41.6579 33.4474C41.9372 33.2563 42.2802 33.1818 42.6136 33.2397ZM42.5547 40.3987C42.4467 40.5289 42.3135 40.636 42.163 40.7135C42.0126 40.791 41.8481 40.8374 41.6793 40.8498C41.5106 40.8622 41.341 40.8404 41.1809 40.7858C41.0207 40.7311 40.8733 40.6447 40.7473 40.5317L39.5857 39.5283C39.4494 39.4219 39.3361 39.2889 39.2527 39.1374C39.1693 38.986 39.1175 38.8191 39.1004 38.6471C39.0833 38.475 39.1013 38.3012 39.1533 38.1363C39.2053 37.9714 39.2902 37.8187 39.4029 37.6876C39.5157 37.5564 39.6538 37.4495 39.809 37.3733C39.9642 37.297 40.1333 37.2531 40.306 37.2441C40.4787 37.2351 40.6514 37.2613 40.8137 37.3209C40.976 37.3806 41.1245 37.4726 41.2502 37.5913L42.4217 38.5913C42.6773 38.8144 42.8347 39.1293 42.8596 39.4676C42.8845 39.806 42.7749 40.1406 42.5547 40.3987ZM37.6344 43.786C37.4751 43.8418 37.3063 43.8654 37.1378 43.8556C36.9694 43.8458 36.8045 43.8028 36.6527 43.729C36.501 43.6551 36.3653 43.552 36.2537 43.4255C36.142 43.2989 36.0564 43.1516 36.002 42.9918L35.4897 41.5281C35.4342 41.3696 35.4105 41.2018 35.4199 41.0342C35.4293 40.8666 35.4717 40.7024 35.5445 40.5512C35.6173 40.3999 35.7192 40.2645 35.8444 40.1526C35.9696 40.0407 36.1155 39.9546 36.274 39.8992C36.4324 39.8437 36.6003 39.82 36.7679 39.8294C36.9355 39.8388 37.0996 39.8811 37.2509 39.954C37.4021 40.0268 37.5376 40.1287 37.6494 40.2539C37.7613 40.379 37.8474 40.525 37.9029 40.6835L38.4083 42.1274C38.4686 42.287 38.4963 42.457 38.4899 42.6274C38.4835 42.7979 38.443 42.9653 38.3709 43.1198C38.2988 43.2744 38.1964 43.413 38.0699 43.5274C37.9435 43.6418 37.7953 43.7297 37.6344 43.786ZM33.1714 43.1832C33.111 43.5238 32.9178 43.8264 32.6343 44.0246C32.3507 44.2227 32.0001 44.3001 31.6595 44.2397C31.3189 44.1793 31.0162 43.986 30.8181 43.7025C30.6199 43.4189 30.5426 43.0683 30.603 42.7277L30.8952 41.2155C30.9195 41.0443 30.9782 40.8798 31.0679 40.7319C31.1575 40.584 31.2762 40.4559 31.4169 40.3552C31.5575 40.2546 31.717 40.1835 31.8859 40.1463C32.0548 40.1091 32.2295 40.1065 32.3993 40.1388C32.5692 40.171 32.7308 40.2374 32.8743 40.3339C33.0178 40.4304 33.1403 40.555 33.2342 40.7002C33.3282 40.8453 33.3917 41.0081 33.4209 41.1785C33.4502 41.3489 33.4445 41.5235 33.4044 41.6917L33.1714 43.1832ZM26.1653 39.818L27.1652 38.6465C27.3898 38.3933 27.7043 38.2377 28.0419 38.2129C28.3794 38.188 28.7134 38.2959 28.9726 38.5135C29.1004 38.6232 29.2052 38.7571 29.2811 38.9074C29.357 39.0578 29.4024 39.2216 29.4147 39.3896C29.4271 39.5575 29.4061 39.7263 29.3531 39.8861C29.3 40.0459 29.2159 40.1937 29.1056 40.3209L28.1022 41.4825C27.9958 41.6188 27.8628 41.7321 27.7114 41.8155C27.5599 41.8989 27.3931 41.9507 27.221 41.9678C27.0489 41.9849 26.8751 41.9669 26.7102 41.9149C26.5453 41.8629 26.3926 41.778 26.2615 41.6653C26.1303 41.5526 26.0234 41.4144 25.9472 41.2592C25.871 41.104 25.827 40.9349 25.818 40.7622C25.809 40.5895 25.8352 40.4168 25.8949 40.2545C25.9545 40.0922 26.0465 39.9437 26.1653 39.818ZM26.8146 35.361C26.9266 35.681 26.9069 36.0324 26.7598 36.3379C26.6127 36.6433 26.3503 36.8779 26.0303 36.9899L24.5764 37.4987C24.2644 37.5772 23.9344 37.5362 23.6511 37.3837C23.3678 37.2312 23.1518 36.9782 23.0455 36.6746C22.9392 36.3709 22.9503 36.0385 23.0767 35.7426C23.2031 35.4467 23.4355 35.2088 23.7284 35.0756L25.1822 34.5668C25.5041 34.4571 25.8562 34.479 26.162 34.6277C26.4677 34.7765 26.7023 35.0401 26.8146 35.361ZM26.5184 31.5014C26.4682 31.7164 26.3635 31.9149 26.2145 32.0779C26.0655 32.2408 25.8771 32.3628 25.6674 32.432C25.4565 32.5081 25.229 32.5263 25.0087 32.4849L23.4999 32.2025C23.1682 32.1356 22.8756 31.9418 22.6845 31.6624C22.4934 31.383 22.4189 31.0401 22.4768 30.7066C22.5086 30.5416 22.5726 30.3844 22.6652 30.2441C22.7578 30.1038 22.8771 29.9832 23.0164 29.8891C23.1556 29.795 23.3121 29.7292 23.4768 29.6957C23.6415 29.6621 23.8112 29.6613 23.9762 29.6934L25.4849 29.9758C25.6545 30.005 25.8164 30.0681 25.961 30.1614C26.1056 30.2547 26.2298 30.3762 26.3263 30.5186C26.4229 30.6611 26.4896 30.8215 26.5226 30.9904C26.5556 31.1593 26.5542 31.333 26.5184 31.5014ZM28.1934 28.0398C28.045 28.2074 27.8564 28.3345 27.6454 28.4092C27.4334 28.4852 27.205 28.5034 26.9836 28.4619C26.7623 28.4203 26.556 28.3205 26.3859 28.1728L25.165 27.1902C24.9094 26.9671 24.7521 26.6522 24.7272 26.3138C24.7023 25.9755 24.8118 25.6409 25.032 25.3828C25.1417 25.255 25.2756 25.1502 25.4259 25.0743C25.5763 24.9984 25.7401 24.953 25.9081 24.9407C26.076 24.9283 26.2448 24.9493 26.4046 25.0023C26.5644 25.0553 26.7122 25.1395 26.8394 25.2498L28.0505 26.2358C28.1784 26.3448 28.2837 26.478 28.3601 26.6277C28.4366 26.7773 28.4828 26.9406 28.496 27.1082C28.5093 27.2758 28.4894 27.4443 28.4375 27.6041C28.3855 27.764 28.3026 27.9121 28.1934 28.0398Z" fill="#373737"/>
</g>
<defs>
<filter id="filter0_d_717_7030" x="0.803379" y="0.965325" width="117.017" height="111.885" filterUnits="userSpaceOnUse" color-interpolation-filters="sRGB">
<feFlood flood-opacity="0" result="BackgroundImageFix"/>
<feColorMatrix in="SourceAlpha" type="matrix" values="0 0 0 0 0 0 0 0 0 0 0 0 0 0 0 0 0 0 127 0" result="hardAlpha"/>
<feOffset dy="3.43892"/>
<feGaussianBlur stdDeviation="10.5747"/>
<feComposite in2="hardAlpha" operator="out"/>
<feColorMatrix type="matrix" values="0 0 0 0 0 0 0 0 0 0 0 0 0 0 0 0 0 0 0.1 0"/>
<feBlend mode="normal" in2="BackgroundImageFix" result="effect1_dropShadow_717_7030"/>
<feBlend mode="normal" in="SourceGraphic" in2="effect1_dropShadow_717_7030" result="shape"/>
</filter>
<clipPath id="clip0_717_7030">
<rect width="25.1482" height="25.1482" fill="white" transform="matrix(-0.943861 0.330342 0.330342 0.943861 41.194 15.8927)"/>
</clipPath>
</defs>
</svg>
