<svg width="110" height="109" viewBox="0 0 110 109" fill="none" xmlns="http://www.w3.org/2000/svg">
<g filter="url(#filter0_d_717_7000)">
<path fill-rule="evenodd" clip-rule="evenodd" d="M50.8955 20.7286C46.5682 22.0608 43.3664 25.3215 41.9418 29.2768C39.8999 28.5413 37.6108 28.4378 35.3769 29.1255C29.8975 30.8124 26.8234 36.6219 28.5102 42.1013C28.9362 43.4851 29.6256 44.7148 30.5057 45.7538C24.8681 49.4615 22.1026 56.571 24.1878 63.3445C25.7796 68.5149 29.8189 72.2562 34.6423 73.6915C37.1957 80.488 44.6335 84.2054 51.6656 82.0406C53.0113 81.6263 54.2478 81.0249 55.3562 80.2748C58.4888 81.9354 62.2551 82.4002 65.9114 81.2747C70.6575 79.8136 74.05 76.0328 75.2284 71.5599C80.0457 72.2055 84.466 70.5705 86.385 66.9771C88.5747 62.8764 86.8348 57.4859 82.5034 53.6738C86.6286 48.2935 87.8397 41.8856 85.0399 36.8948C82.0964 31.6479 75.5055 29.3666 68.3561 30.4464C68.3068 30.2591 68.2541 30.0718 68.1966 29.885C65.9475 22.5789 58.2015 18.4795 50.8955 20.7286Z" fill="#FF33D2"/>
<path d="M50.5345 19.5574C58.3448 17.1531 66.6156 21.4136 69.229 29.0996C76.2982 28.3399 82.984 30.7254 86.1086 36.2946L86.1089 36.2955C89.0633 41.5623 87.924 48.0689 84.131 53.5197C88.1297 57.5093 89.8691 63.0561 87.4667 67.555C85.3771 71.4679 80.8635 73.2173 76.108 72.8807C74.6066 77.3005 71.0785 80.9663 66.2721 82.446C62.5409 83.5947 58.7022 83.2217 55.4286 81.6817C54.3839 82.317 53.2464 82.8367 52.0262 83.2124C44.5663 85.5088 36.6882 81.7246 33.7182 74.6833C28.774 73.0171 24.6705 69.0773 23.0166 63.7054C20.9012 56.8339 23.4134 49.645 28.7752 45.4859C28.1672 44.5738 27.6771 43.5617 27.3386 42.4623C25.4526 36.3358 28.8896 29.84 35.0162 27.9538C37.1078 27.3099 39.2446 27.2883 41.2257 27.7813C42.94 23.9707 46.2238 20.8846 50.5345 19.5574Z" stroke="white" stroke-width="2.45203"/>
</g>
<circle cx="47.1287" cy="50.0753" r="3.67805" transform="rotate(-4.65141 47.1287 50.0753)" fill="black"/>
<circle cx="63.292" cy="47.1273" r="3.67805" transform="rotate(-4.65141 63.292 47.1273)" fill="black"/>
<circle cx="56.6212" cy="55.8668" r="2.8607" transform="rotate(-4.65141 56.6212 55.8668)" stroke="black" stroke-width="1.63469"/>
<g clip-path="url(#clip0_717_7000)">
<path d="M64.1112 16.2501C64.2675 16.2139 64.4151 16.1471 64.5454 16.0536C64.6758 15.96 64.7863 15.8416 64.8707 15.7051C64.955 15.5687 65.0115 15.4168 65.0369 15.2584C65.0623 15.1 65.0561 14.9381 65.0186 14.7821L64.1395 10.9875C64.0667 10.6735 63.8722 10.4013 63.5987 10.2307C63.3252 10.0601 62.9952 10.0051 62.6812 10.0779C62.3672 10.1506 62.0949 10.3451 61.9243 10.6186C61.7537 10.8921 61.6988 11.2221 61.7715 11.5362L62.6506 15.3307C62.6856 15.4873 62.7511 15.6354 62.8436 15.7666C62.9361 15.8977 63.0536 16.0092 63.1894 16.0946C63.3252 16.1801 63.4765 16.2379 63.6347 16.2645C63.7929 16.2912 63.9549 16.2863 64.1112 16.2501ZM59.0572 17.4312C59.2026 17.5884 59.3873 17.704 59.5922 17.7662C59.7971 17.8283 60.0149 17.8348 60.2231 17.7849C60.4302 17.7361 60.6215 17.6355 60.7791 17.4924C60.8955 17.383 60.9892 17.2517 61.0549 17.106C61.1205 16.9603 61.1567 16.803 61.1615 16.6433C61.1663 16.4836 61.1395 16.3245 61.0827 16.1751C61.026 16.0258 60.9403 15.889 60.8306 15.7728L59.8366 14.7044C59.7278 14.587 59.5969 14.4923 59.4513 14.4256C59.3057 14.3589 59.1484 14.3217 58.9884 14.316C58.8284 14.3103 58.6689 14.3363 58.5189 14.3924C58.369 14.4486 58.2317 14.5338 58.1148 14.6432C57.88 14.8644 57.7419 15.1692 57.7304 15.4916C57.7189 15.8139 57.835 16.1278 58.0535 16.3651L59.0572 17.4312ZM55.922 20.9799L57.3187 21.4028C57.5232 21.4504 57.7367 21.4432 57.9377 21.3821C58.1458 21.3334 58.3375 21.2312 58.4939 21.0856C58.6503 20.9399 58.7659 20.7559 58.8292 20.5517C58.8761 20.3986 58.8922 20.2378 58.8767 20.0785C58.8612 19.9191 58.8144 19.7644 58.7389 19.6232C58.6634 19.482 58.5608 19.3571 58.4369 19.2557C58.313 19.1543 58.1703 19.0783 58.017 19.0322L56.6226 18.619C56.4695 18.5722 56.3087 18.556 56.1493 18.5715C55.99 18.587 55.8353 18.6339 55.6941 18.7093C55.5529 18.7848 55.428 18.8874 55.3266 19.0113C55.2251 19.1352 55.1492 19.2779 55.1031 19.4312C55.0547 19.5867 55.0375 19.7501 55.0525 19.9123C55.0676 20.0744 55.1145 20.2319 55.1906 20.3758C55.2667 20.5197 55.3705 20.6472 55.496 20.7509C55.6215 20.8545 55.7663 20.9323 55.922 20.9799ZM56.3782 26.0381L57.8048 25.7076C58.0953 25.612 58.3396 25.4112 58.4896 25.1447C58.6396 24.8781 58.6845 24.5651 58.6155 24.2672C58.5465 23.9692 58.3685 23.7078 58.1165 23.5344C57.8646 23.361 57.5569 23.2881 57.2539 23.33L55.8273 23.6605C55.5368 23.7561 55.2925 23.9569 55.1425 24.2234C54.9924 24.49 54.9475 24.803 55.0166 25.101C55.0856 25.3989 55.2636 25.6603 55.5155 25.8337C55.7675 26.0071 56.0752 26.0801 56.3782 26.0381ZM58.7104 27.41L57.6443 28.4137C57.5191 28.5202 57.4168 28.6511 57.3436 28.7983C57.2704 28.9455 57.2279 29.106 57.2185 29.2701C57.2091 29.4343 57.2332 29.5986 57.2892 29.7532C57.3451 29.9078 57.4319 30.0494 57.5442 30.1694C57.6565 30.2895 57.792 30.3856 57.9425 30.4518C58.0929 30.518 58.2553 30.553 58.4197 30.5546C58.5841 30.5563 58.7471 30.5245 58.8989 30.4614C59.0506 30.3982 59.188 30.3049 59.3027 30.1871L60.3711 29.1931C60.4885 29.0843 60.5833 28.9533 60.6499 28.8078C60.7166 28.6622 60.7539 28.5049 60.7595 28.3449C60.7652 28.1849 60.7393 28.0253 60.6831 27.8754C60.6269 27.7255 60.5417 27.5881 60.4323 27.4712C60.2098 27.2388 59.9054 27.1023 59.5838 27.0909C59.2622 27.0794 58.9489 27.1939 58.7104 27.41ZM62.398 33.1308C62.551 33.1804 62.7124 33.1987 62.8727 33.1845C63.0329 33.1703 63.1887 33.1239 63.3306 33.048C63.4724 32.9722 63.5975 32.8685 63.6984 32.7432C63.7993 32.6178 63.8738 32.4734 63.9175 32.3186L64.3404 30.9219C64.3957 30.7672 64.4191 30.6027 64.4091 30.4386C64.3991 30.2745 64.3559 30.1142 64.2821 29.9673C64.2084 29.8203 64.1055 29.6899 63.9799 29.5839C63.8543 29.4778 63.7084 29.3984 63.5512 29.3504C63.394 29.3023 63.2286 29.2867 63.0652 29.3044C62.9018 29.3221 62.7436 29.3727 62.6003 29.4533C62.457 29.5339 62.3316 29.6427 62.2315 29.7732C62.1315 29.9037 62.059 30.0531 62.0184 30.2124L61.5858 31.6113C61.4939 31.9205 61.5276 32.2534 61.6797 32.5379C61.8317 32.8224 62.0898 33.0354 62.398 33.1308ZM68.0728 33.3499C68.2291 33.3137 68.3767 33.2469 68.5071 33.1533C68.6374 33.0598 68.748 32.9414 68.8324 32.8049C68.9167 32.6684 68.9732 32.5166 68.9986 32.3582C69.024 32.1998 69.0178 32.0379 68.9803 31.8819L68.6475 30.4456C68.6115 30.2901 68.5452 30.1432 68.4524 30.0134C68.3596 29.8835 68.2422 29.7732 68.1068 29.6887C67.9713 29.6043 67.8206 29.5473 67.6632 29.5211C67.5058 29.4948 67.3447 29.4999 67.1892 29.5359C67.0337 29.5719 66.8869 29.6382 66.757 29.731C66.6271 29.8238 66.5168 29.9412 66.4324 30.0766C66.3479 30.2121 66.2909 30.3628 66.2647 30.5202C66.2385 30.6777 66.2435 30.8387 66.2795 30.9942L66.6078 32.4111C66.6405 32.5699 66.7047 32.7206 66.7965 32.8542C66.8883 32.9879 67.0059 33.1018 67.1425 33.1893C67.279 33.2767 67.4316 33.336 67.5914 33.3636C67.7512 33.3912 67.9149 33.3865 68.0728 33.3499ZM71.3513 30.5963C71.573 30.8392 71.8821 30.9841 72.2107 30.999C72.5392 31.014 72.8602 30.8979 73.1031 30.6762C73.346 30.4545 73.4908 30.1454 73.5058 29.8168C73.5208 29.4883 73.4047 29.1673 73.183 28.9244L72.1793 27.8583C72.0727 27.7331 71.9419 27.6308 71.7947 27.5576C71.6475 27.4844 71.4869 27.4419 71.3228 27.4325C71.1587 27.4231 70.9943 27.4472 70.8398 27.5032C70.6852 27.5591 70.5436 27.6459 70.4235 27.7582C70.3034 27.8705 70.2074 28.006 70.1412 28.1564C70.075 28.3069 70.04 28.4693 70.0383 28.6337C70.0367 28.7981 70.0684 28.9611 70.1316 29.1129C70.1947 29.2646 70.2881 29.402 70.4059 29.5167L71.3513 30.5963ZM75.2682 24.3306L73.8693 23.898C73.5601 23.8088 73.2283 23.8438 72.9445 23.9954C72.6608 24.1471 72.4474 24.4036 72.3498 24.7102C72.3029 24.8633 72.2868 25.0241 72.3023 25.1835C72.3178 25.3428 72.3646 25.4976 72.4401 25.6388C72.5155 25.7799 72.6182 25.9048 72.742 26.0063C72.8659 26.1077 73.0086 26.1836 73.162 26.2297L74.5586 26.6526C74.7134 26.708 74.8778 26.7314 75.0419 26.7214C75.206 26.7113 75.3664 26.6681 75.5133 26.5944C75.6602 26.5206 75.7906 26.4178 75.8967 26.2921C76.0027 26.1665 76.0821 26.0207 76.1302 25.8634C76.1782 25.7062 76.1939 25.5409 76.1762 25.3774C76.1585 25.214 76.1078 25.0558 76.0272 24.9125C75.9466 24.7692 75.8378 24.6438 75.7073 24.5438C75.5769 24.4437 75.4275 24.3712 75.2682 24.3306ZM72.4803 21.0805C72.553 21.3945 72.7475 21.6668 73.021 21.8374C73.2945 22.008 73.6245 22.063 73.9386 21.9902L75.3652 21.6597C75.6557 21.5641 75.9 21.3633 76.05 21.0967C76.2 20.8302 76.2449 20.5172 76.1759 20.2192C76.1069 19.9212 75.9289 19.6599 75.6769 19.4864C75.425 19.313 75.1173 19.2401 74.8143 19.282L73.3877 19.6125C73.0734 19.6881 72.8017 19.8847 72.6317 20.1597C72.4617 20.4346 72.4073 20.7656 72.4803 21.0805ZM70.7556 17.8295C70.9053 17.9767 71.0904 18.083 71.2929 18.1381C71.4955 18.1932 71.7089 18.1954 71.9125 18.1444C72.1206 18.0982 72.3126 17.9972 72.4685 17.8519L73.5369 16.8579C73.7694 16.6354 73.9058 16.331 73.9173 16.0094C73.9287 15.6879 73.8142 15.3745 73.5981 15.1361C73.4887 15.0196 73.3573 14.9259 73.2116 14.8603C73.0659 14.7947 72.9087 14.7585 72.749 14.7537C72.5893 14.7489 72.4302 14.7757 72.2808 14.8324C72.1314 14.8892 71.9947 14.9749 71.8785 15.0845L70.8101 16.0785C70.6888 16.1882 70.5908 16.3213 70.5221 16.4697C70.4534 16.6181 70.4153 16.7789 70.4102 16.9424C70.4051 17.1059 70.4331 17.2688 70.4925 17.4212C70.5518 17.5736 70.6413 17.7125 70.7556 17.8295ZM67.6501 15.9006C67.8545 15.9598 68.0706 15.966 68.278 15.9187C68.487 15.872 68.6797 15.7704 68.8364 15.6245C68.9931 15.4785 69.1081 15.2935 69.1696 15.0884L69.6507 13.6783C69.7426 13.3691 69.7088 13.0361 69.5568 12.7516C69.4047 12.4672 69.1467 12.2541 68.8385 12.1587C68.6854 12.1119 68.5246 12.0957 68.3652 12.1112C68.2059 12.1267 68.0512 12.1736 67.91 12.249C67.7688 12.3245 67.6439 12.4271 67.5425 12.551C67.441 12.6749 67.3651 12.8176 67.319 12.9709L66.8476 14.3788C66.8002 14.5314 66.7834 14.6919 66.7981 14.851C66.8128 15.0101 66.8587 15.1648 66.9332 15.3061C67.0078 15.4475 67.1095 15.5727 67.2325 15.6747C67.3555 15.7767 67.4974 15.8535 67.6501 15.9006Z" fill="#373737"/>
</g>
<defs>
<filter id="filter0_d_717_7000" x="0.935095" y="0.822389" width="108.966" height="107.663" filterUnits="userSpaceOnUse" color-interpolation-filters="sRGB">
<feFlood flood-opacity="0" result="BackgroundImageFix"/>
<feColorMatrix in="SourceAlpha" type="matrix" values="0 0 0 0 0 0 0 0 0 0 0 0 0 0 0 0 0 0 127 0" result="hardAlpha"/>
<feOffset dy="3.26937"/>
<feGaussianBlur stdDeviation="10.0533"/>
<feComposite in2="hardAlpha" operator="out"/>
<feColorMatrix type="matrix" values="0 0 0 0 0 0 0 0 0 0 0 0 0 0 0 0 0 0 0.1 0"/>
<feBlend mode="normal" in2="BackgroundImageFix" result="effect1_dropShadow_717_7000"/>
<feBlend mode="normal" in="SourceGraphic" in2="effect1_dropShadow_717_7000" result="shape"/>
</filter>
<clipPath id="clip0_717_7000">
<rect width="23.9083" height="23.9083" fill="white" transform="translate(51.0305 12.7548) rotate(-13.0442)"/>
</clipPath>
</defs>
</svg>
