<svg width="78" height="76" viewBox="0 0 78 76" fill="none" xmlns="http://www.w3.org/2000/svg">
<g filter="url(#filter0_d_717_7020)">
<path fill-rule="evenodd" clip-rule="evenodd" d="M44.6938 14.6918C47.6136 15.8883 49.631 18.3527 50.3713 21.1875C51.8348 20.8054 53.4301 20.8774 54.9374 21.4951C58.6345 23.0102 60.4031 27.2357 58.8881 30.9329C58.5054 31.8665 57.9497 32.6767 57.2735 33.3426C60.9535 36.2703 62.4262 41.3786 60.5533 45.949C59.1236 49.4377 56.0849 51.7806 52.6469 52.4738C50.4475 57.0306 45.0515 59.1434 40.3067 57.199C39.3987 56.8269 38.5783 56.3318 37.856 55.7415C35.5774 56.6972 32.9341 56.7832 30.467 55.7722C27.2647 54.4599 25.1476 51.6225 24.6107 48.4439C21.2265 48.5893 18.2612 47.1768 17.1551 44.5621C15.8929 41.5783 17.4393 37.9461 20.6851 35.5723C18.16 31.5788 17.7221 27.0551 19.979 23.7669C22.3517 20.3102 27.0696 19.1409 31.9641 20.3396C32.01 20.2127 32.0584 20.086 32.11 19.9599C34.1302 15.0303 39.7641 12.6717 44.6938 14.6918Z" fill="#3474FF"/>
<path d="M45.018 13.9012C39.7484 11.7418 33.7432 14.1804 31.446 19.3502C26.5859 18.3776 21.7933 19.6133 19.2741 23.2834C16.8925 26.7533 17.2748 31.3415 19.5649 35.3632C16.5389 37.881 14.9832 41.6215 16.368 44.895C17.5725 47.7424 20.5957 49.24 23.9178 49.3049C24.6821 52.4671 26.9 55.234 30.1432 56.5631C32.6608 57.5948 35.3485 57.5762 37.7174 56.713C38.4027 57.2196 39.1593 57.6521 39.9826 57.9895C45.0157 60.0521 50.7199 57.9206 53.2241 53.2209C56.7613 52.3754 59.8582 49.8984 61.3439 46.2731C63.244 41.6365 61.9518 36.4885 58.4913 33.2649C58.9706 32.67 59.3744 31.9982 59.6784 31.2564C61.3722 27.1229 59.3952 22.3991 55.2618 20.7048L54.9447 20.5823C53.6299 20.1059 52.2642 19.9936 50.9632 20.1949C50.0129 17.442 47.9268 15.0933 45.018 13.9012Z" stroke="white" stroke-width="1.70887"/>
</g>
<circle cx="2.56331" cy="2.56331" r="2.56331" transform="matrix(-0.985335 -0.170629 -0.170629 0.985335 48.4307 33.1996)" fill="black"/>
<circle cx="2.56331" cy="2.56331" r="2.56331" transform="matrix(-0.985335 -0.170629 -0.170629 0.985335 37.392 30.147)" fill="black"/>
<circle cx="2.56331" cy="2.56331" r="1.99368" transform="matrix(-0.985335 -0.170629 -0.170629 0.985335 41.4778 36.6248)" stroke="black" stroke-width="1.13925"/>
<g clip-path="url(#clip0_717_7020)">
<path d="M35.803 10.7501C35.6968 10.7152 35.5985 10.6596 35.5139 10.5864C35.4293 10.5133 35.36 10.4242 35.3101 10.3242C35.2601 10.2241 35.2304 10.1152 35.2227 10.0037C35.2151 9.8921 35.2296 9.78014 35.2654 9.67421L36.114 7.09572C36.1842 6.88234 36.3364 6.7056 36.5369 6.60437C36.7374 6.50315 36.97 6.48573 37.1834 6.55596C37.3967 6.62619 37.5735 6.7783 37.6747 6.97884C37.7759 7.17938 37.7933 7.41191 37.7231 7.62529L36.8745 10.2038C36.8404 10.3103 36.7856 10.409 36.7132 10.4942C36.6407 10.5794 36.5522 10.6494 36.4526 10.7002C36.3529 10.751 36.2443 10.7815 36.1328 10.7901C36.0213 10.7987 35.9092 10.7851 35.803 10.7501ZM39.2366 11.8875C39.1258 11.9875 38.9904 12.0561 38.8443 12.0864C38.6981 12.1167 38.5466 12.1074 38.4052 12.0597C38.2645 12.0129 38.138 11.931 38.0376 11.8218C37.9637 11.7385 37.9069 11.6415 37.8705 11.5362C37.8342 11.431 37.8189 11.3196 37.8256 11.2084C37.8323 11.0973 37.8609 10.9885 37.9097 10.8884C37.9585 10.7883 38.0265 10.6988 38.1099 10.625L38.867 9.94593C38.9499 9.87127 39.0467 9.81372 39.152 9.77659C39.2572 9.73947 39.3687 9.7235 39.4801 9.7296C39.5915 9.73571 39.7006 9.76377 39.8012 9.81216C39.9017 9.86056 39.9917 9.92835 40.066 10.0116C40.215 10.1799 40.2917 10.4001 40.2794 10.6246C40.2671 10.8491 40.1668 11.0596 40.0003 11.2106L39.2366 11.8875ZM41.1897 14.5476L40.1938 14.7533C40.0488 14.7735 39.9011 14.7551 39.7654 14.7001C39.624 14.6532 39.4974 14.5702 39.398 14.4593C39.2986 14.3484 39.2299 14.2134 39.1988 14.0677C39.1759 13.9585 39.1748 13.8459 39.1956 13.7363C39.2163 13.6266 39.2586 13.5222 39.3198 13.4289C39.3811 13.3357 39.4602 13.2554 39.5525 13.1928C39.6449 13.1302 39.7487 13.0865 39.858 13.0641L40.8518 12.8649C40.961 12.842 41.0737 12.8409 41.1833 12.8617C41.2929 12.8825 41.3974 12.9247 41.4906 12.986C41.5839 13.0472 41.6641 13.1263 41.7267 13.2187C41.7893 13.311 41.8331 13.4148 41.8554 13.5241C41.8793 13.6351 41.8809 13.7496 41.8603 13.8612C41.8397 13.9728 41.7972 14.0792 41.7354 14.1743C41.6735 14.2694 41.5934 14.3513 41.4998 14.4154C41.4062 14.4795 41.3008 14.5244 41.1897 14.5476ZM40.5553 18.0298L39.5859 17.7107C39.3902 17.6261 39.2333 17.4714 39.1459 17.277C39.0585 17.0825 39.047 16.8625 39.1137 16.66C39.1803 16.4575 39.3203 16.2873 39.506 16.1827C39.6918 16.0782 39.91 16.0469 40.1176 16.095L41.087 16.4141C41.2827 16.4987 41.4396 16.6534 41.527 16.8479C41.6144 17.0423 41.6259 17.2624 41.5592 17.4648C41.4926 17.6673 41.3526 17.8376 41.1669 17.9421C40.9811 18.0466 40.7629 18.0779 40.5553 18.0298ZM38.8503 18.8354L39.5272 19.599C39.6074 19.6809 39.6702 19.7781 39.7117 19.8849C39.7533 19.9916 39.7727 20.1057 39.7689 20.2202C39.7651 20.3348 39.7381 20.4473 39.6895 20.5511C39.641 20.6548 39.5718 20.7477 39.4864 20.824C39.4009 20.9003 39.3008 20.9584 39.1922 20.9949C39.0836 21.0314 38.9687 21.0455 38.8545 21.0363C38.7403 21.0271 38.6291 20.9949 38.5278 20.9415C38.4264 20.8881 38.3369 20.8147 38.2647 20.7257L37.5856 19.9687C37.511 19.8858 37.4534 19.7889 37.4163 19.6837C37.3792 19.5785 37.3632 19.4669 37.3693 19.3555C37.3754 19.2441 37.4035 19.135 37.4519 19.0345C37.5003 18.9339 37.568 18.844 37.6513 18.7697C37.8204 18.6223 38.0402 18.5467 38.2641 18.559C38.4881 18.5713 38.6984 18.6704 38.8503 18.8354ZM35.9314 22.5744C35.822 22.5992 35.7088 22.6018 35.5985 22.5818C35.4882 22.5619 35.383 22.5199 35.2893 22.4584C35.1956 22.3968 35.1152 22.317 35.0531 22.2236C34.991 22.1303 34.9483 22.0254 34.9277 21.9152L34.722 20.9192C34.6933 20.8083 34.6874 20.6927 34.7046 20.5794C34.7219 20.4662 34.7619 20.3576 34.8224 20.2602C34.8828 20.1629 34.9624 20.0788 35.0562 20.0131C35.1501 19.9474 35.2563 19.9015 35.3685 19.878C35.4806 19.8545 35.5964 19.8541 35.7087 19.8766C35.821 19.8992 35.9276 19.9443 36.022 20.0092C36.1164 20.0741 36.1966 20.1576 36.2579 20.2544C36.3191 20.3512 36.36 20.4595 36.3782 20.5726L36.5906 21.5708C36.6349 21.7911 36.5906 22.0201 36.4672 22.208C36.3438 22.3959 36.1512 22.5275 35.9314 22.5744ZM31.9788 22.3699C31.8726 22.3349 31.7743 22.2793 31.6897 22.2062C31.6051 22.1331 31.5358 22.0439 31.4858 21.9439C31.4359 21.8439 31.4062 21.7349 31.3985 21.6234C31.3909 21.5118 31.4054 21.3999 31.4412 21.2939L31.7624 20.3179C31.7972 20.2123 31.8524 20.1145 31.925 20.0302C31.9975 19.9459 32.086 19.8767 32.1853 19.8266C32.2846 19.7765 32.3928 19.7464 32.5037 19.7381C32.6146 19.7298 32.7261 19.7434 32.8317 19.7782C32.9374 19.813 33.0352 19.8682 33.1195 19.9408C33.2038 20.0133 33.273 20.1018 33.3231 20.2011C33.3732 20.3004 33.4033 20.4086 33.4116 20.5195C33.4199 20.6304 33.4063 20.7419 33.3715 20.8475L33.0546 21.8103C33.0219 21.9185 32.9679 22.019 32.8958 22.106C32.8237 22.193 32.7349 22.2647 32.6346 22.3168C32.5344 22.369 32.4247 22.4005 32.3121 22.4096C32.1994 22.4188 32.0861 22.4052 31.9788 22.3699ZM29.8763 20.2527C29.7071 20.4073 29.4835 20.4884 29.2545 20.4782C29.0255 20.4679 28.81 20.3672 28.6554 20.198C28.5007 20.0289 28.4196 19.8052 28.4298 19.5763C28.4401 19.3473 28.5409 19.1318 28.71 18.9771L29.4736 18.3002C29.5555 18.22 29.6527 18.1572 29.7595 18.1157C29.8662 18.0741 29.9803 18.0547 30.0948 18.0585C30.2094 18.0623 30.3219 18.0893 30.4257 18.1379C30.5294 18.1865 30.6223 18.2556 30.6986 18.3411C30.7749 18.4265 30.833 18.5266 30.8695 18.6352C30.906 18.7438 30.9201 18.8587 30.9109 18.9729C30.9017 19.0871 30.8695 19.1983 30.8161 19.2997C30.7627 19.401 30.6893 19.4905 30.6003 19.5627L29.8763 20.2527ZM27.5514 15.6576L28.5495 15.4453C28.7697 15.4028 28.9978 15.4479 29.1852 15.571C29.3726 15.6941 29.5046 15.8855 29.5531 16.1045C29.576 16.2137 29.5771 16.3263 29.5563 16.436C29.5356 16.5456 29.4933 16.65 29.4321 16.7433C29.3708 16.8366 29.2918 16.9168 29.1994 16.9794C29.107 17.042 29.0032 17.0857 28.8939 17.1081L27.8979 17.3139C27.787 17.3426 27.6714 17.3485 27.5582 17.3312C27.4449 17.314 27.3363 17.2739 27.239 17.2135C27.1416 17.153 27.0576 17.0735 26.9919 16.9796C26.9262 16.8857 26.8802 16.7795 26.8567 16.6674C26.8333 16.5552 26.8328 16.4395 26.8553 16.3272C26.8779 16.2148 26.923 16.1082 26.9879 16.0138C27.0529 15.9194 27.1363 15.8392 27.2331 15.778C27.33 15.7167 27.4382 15.6758 27.5514 15.6576ZM29.6906 13.577C29.6204 13.7904 29.4683 13.9671 29.2677 14.0683C29.0672 14.1695 28.8346 14.187 28.6213 14.1167L27.6519 13.7977C27.4562 13.7131 27.2993 13.5584 27.2119 13.3639C27.1245 13.1695 27.113 12.9494 27.1797 12.7469C27.2463 12.5445 27.3863 12.3742 27.572 12.2697C27.7578 12.1652 27.9759 12.1339 28.1836 12.182L29.153 12.5011C29.3664 12.5732 29.5427 12.7268 29.6434 12.9283C29.7441 13.1298 29.761 13.363 29.6906 13.577ZM31.0919 11.4289C30.9788 11.5216 30.8437 11.5838 30.6996 11.6093C30.5555 11.6348 30.4073 11.6229 30.2692 11.5747C30.1276 11.5296 30.0007 11.4475 29.9016 11.3368L29.2226 10.5798C29.0752 10.4107 28.9996 10.1909 29.0119 9.96693C29.0241 9.74301 29.1233 9.53271 29.2882 9.38079C29.3715 9.30686 29.4686 9.25007 29.5738 9.21368C29.6791 9.1773 29.7905 9.16202 29.9016 9.16874C30.0128 9.17545 30.1216 9.20402 30.2217 9.25281C30.3218 9.30161 30.4113 9.36966 30.485 9.45308L31.1641 10.2101C31.2415 10.2939 31.3011 10.3924 31.3395 10.4997C31.3778 10.6071 31.3941 10.7211 31.3874 10.8349C31.3807 10.9487 31.351 11.0599 31.3002 11.162C31.2495 11.2641 31.1786 11.3549 31.0919 11.4289ZM33.3687 10.2852C33.2231 10.3134 33.0727 10.3042 32.9317 10.2583C32.7896 10.2127 32.6622 10.1301 32.5626 10.019C32.463 9.90785 32.3948 9.77219 32.365 9.62596L32.1197 8.61699C32.0753 8.39661 32.1197 8.16763 32.2431 7.97974C32.3665 7.79185 32.559 7.6602 32.7789 7.61335C32.8881 7.59045 33.0007 7.58936 33.1104 7.61013C33.22 7.63089 33.3245 7.67312 33.4177 7.73438C33.511 7.79563 33.5912 7.87471 33.6538 7.96707C33.7164 8.05943 33.7602 8.16325 33.7825 8.27256L34.0213 9.27937C34.0446 9.38827 34.0462 9.5007 34.026 9.61022C34.0058 9.71974 33.9642 9.8242 33.9036 9.91762C33.8429 10.011 33.7645 10.0916 33.6727 10.1547C33.5809 10.2177 33.4776 10.2621 33.3687 10.2852Z" fill="#373737"/>
</g>
<defs>
<filter id="filter0_d_717_7020" x="0.987" y="0.525262" width="76.1018" height="75.3972" filterUnits="userSpaceOnUse" color-interpolation-filters="sRGB">
<feFlood flood-opacity="0" result="BackgroundImageFix"/>
<feColorMatrix in="SourceAlpha" type="matrix" values="0 0 0 0 0 0 0 0 0 0 0 0 0 0 0 0 0 0 127 0" result="hardAlpha"/>
<feOffset dy="2.2785"/>
<feGaussianBlur stdDeviation="7.00638"/>
<feComposite in2="hardAlpha" operator="out"/>
<feColorMatrix type="matrix" values="0 0 0 0 0 0 0 0 0 0 0 0 0 0 0 0 0 0 0.1 0"/>
<feBlend mode="normal" in2="BackgroundImageFix" result="effect1_dropShadow_717_7020"/>
<feBlend mode="normal" in="SourceGraphic" in2="effect1_dropShadow_717_7020" result="shape"/>
</filter>
<clipPath id="clip0_717_7020">
<rect width="16.6622" height="16.6622" fill="white" transform="matrix(-0.949879 -0.312619 -0.312619 0.949879 45.1006 9.14893)"/>
</clipPath>
</defs>
</svg>
