<svg width="101" height="97" viewBox="0 0 101 97" fill="none" xmlns="http://www.w3.org/2000/svg">
<g filter="url(#filter0_d_717_7010)">
<path fill-rule="evenodd" clip-rule="evenodd" d="M57.5472 18.3567C53.5063 17.9252 49.7118 19.4827 47.1378 22.2417C45.7134 20.9129 43.8617 20.0179 41.7756 19.7951C36.6589 19.2489 32.0684 22.9541 31.522 28.0708C31.384 29.363 31.5178 30.6212 31.8764 31.7896C25.9144 32.8544 21.1187 37.7411 20.4433 44.0663C19.9278 48.8945 21.9368 53.4094 25.4081 56.2993C25.1109 62.809 29.9319 68.5061 36.4985 69.2073C37.7551 69.3415 38.9878 69.2827 40.1675 69.0559C42.1644 71.5337 45.1069 73.2491 48.5212 73.6137C52.9531 74.087 57.0888 72.1679 59.6429 68.8948C63.3885 71.1311 67.6132 71.3457 70.4671 69.06C73.7237 66.4517 74.1949 61.3895 71.97 56.7129C77.2758 53.7334 80.5411 48.8757 79.9966 43.7684C79.424 38.3991 74.7938 34.1862 68.5141 32.5484C68.5397 32.3765 68.5625 32.2033 68.5811 32.0289C69.3097 25.2065 64.3696 19.0852 57.5472 18.3567Z" fill="#FFC545"/>
<path d="M57.6638 17.2623C64.9572 18.0411 70.2732 24.4815 69.7106 31.7464C75.811 33.6199 80.4831 37.9525 81.0909 43.6519C81.6655 49.0416 78.4235 54.0059 73.3667 57.161C75.2545 61.8665 74.7279 67.0575 71.1549 69.9192C68.0474 72.4079 63.7055 72.2551 59.9018 70.2958C57.1001 73.4108 52.8927 75.1876 48.4045 74.7084C44.9201 74.3363 41.8859 72.6698 39.7301 70.2416C38.6434 70.3962 37.5211 70.4231 36.3816 70.3014C29.4153 69.5575 24.2553 63.6495 24.2957 56.7904C20.8062 53.6672 18.8134 48.966 19.349 43.9494C20.0342 37.5326 24.6496 32.4907 30.5438 30.9562C30.3649 29.9888 30.3178 28.9807 30.4273 27.9542C31.0382 22.2333 36.1715 18.0905 41.8926 18.7013C43.8456 18.9099 45.6162 19.6472 47.076 20.7545C49.8379 18.2173 53.6385 16.8325 57.6638 17.2623Z" stroke="white" stroke-width="2.20082"/>
</g>
<circle cx="44.0618" cy="41.2334" r="3.30123" transform="rotate(18.5544 44.0618 41.2334)" fill="black"/>
<circle cx="58.4383" cy="44.5164" r="3.30123" transform="rotate(18.5544 58.4383 44.5164)" fill="black"/>
<circle cx="49.8448" cy="49.3678" r="2.56762" transform="rotate(18.5544 49.8448 49.3678)" stroke="black" stroke-width="1.46721"/>
<g clip-path="url(#clip0_717_7010)">
<path d="M70.0328 19.3392C70.1746 19.3646 70.3199 19.3617 70.4605 19.3306C70.6012 19.2996 70.7342 19.241 70.8521 19.1582C70.97 19.0755 71.0703 18.9702 71.1472 18.8485C71.2242 18.7268 71.2763 18.5911 71.3006 18.4491L71.9173 15.0079C71.9684 14.7232 71.9042 14.4298 71.7389 14.1923C71.5737 13.9549 71.3208 13.7928 71.0361 13.7418C70.7513 13.6907 70.4579 13.7549 70.2205 13.9202C69.983 14.0854 69.8209 14.3383 69.7699 14.623L69.1531 18.0642C69.1266 18.2057 69.1283 18.3511 69.1582 18.492C69.1881 18.6329 69.2456 18.7664 69.3274 18.885C69.4092 19.0035 69.5136 19.1046 69.6347 19.1826C69.7557 19.2606 69.8911 19.3138 70.0328 19.3392ZM65.4459 18.5261C65.5103 18.7072 65.6217 18.8679 65.7688 18.9916C65.9158 19.1154 66.0932 19.1977 66.2826 19.2302C66.4707 19.2632 66.6641 19.2479 66.8447 19.1856C66.9795 19.1365 67.1032 19.0613 67.2089 18.9643C67.3145 18.8673 67.4 18.7504 67.4605 18.6204C67.5209 18.4903 67.5551 18.3496 67.5611 18.2063C67.5671 18.063 67.5447 17.9199 67.4954 17.7853L67.0532 16.5524C67.005 16.417 66.9305 16.2925 66.834 16.1861C66.7375 16.0796 66.6209 15.9932 66.4909 15.9319C66.3609 15.8707 66.2201 15.8357 66.0766 15.829C65.933 15.8223 65.7896 15.844 65.6545 15.8929C65.3826 15.9923 65.1608 16.1949 65.0374 16.4568C64.9139 16.7187 64.8987 17.0187 64.995 17.2917L65.4459 18.5261ZM61.6046 20.3447L62.6071 21.1875C62.7591 21.2991 62.9377 21.3687 63.1251 21.3894C63.314 21.4228 63.5083 21.4063 63.6888 21.3415C63.8694 21.2767 64.0298 21.1657 64.1542 21.0197C64.247 20.91 64.3172 20.783 64.3608 20.6461C64.4043 20.5091 64.4204 20.3649 64.4081 20.2218C64.3958 20.0786 64.3553 19.9393 64.289 19.8118C64.2226 19.6843 64.1318 19.5712 64.0216 19.479L63.0174 18.645C62.9077 18.5522 62.7808 18.482 62.6438 18.4384C62.5069 18.3948 62.3627 18.3787 62.2195 18.3911C62.0763 18.4034 61.937 18.4439 61.8095 18.5102C61.6821 18.5765 61.569 18.6674 61.4767 18.7776C61.3818 18.8887 61.3098 19.0175 61.2649 19.1565C61.2199 19.2955 61.2029 19.4421 61.2148 19.5877C61.2267 19.7334 61.2672 19.8752 61.3341 20.0051C61.401 20.135 61.4929 20.2504 61.6046 20.3447ZM60.1919 24.6788L61.4856 24.9107C61.7591 24.9346 62.0317 24.8553 62.2497 24.6885C62.4677 24.5217 62.6154 24.2793 62.6639 24.0091C62.7123 23.7389 62.6579 23.4603 62.5114 23.2281C62.3649 22.996 62.1369 22.827 61.8721 22.7544L60.5784 22.5225C60.3049 22.4986 60.0323 22.5779 59.8143 22.7447C59.5963 22.9115 59.4486 23.1539 59.4001 23.4241C59.3517 23.6943 59.4061 23.9729 59.5526 24.2051C59.6991 24.4372 59.9271 24.6062 60.1919 24.6788ZM61.6307 26.6353L60.3962 27.0862C60.2553 27.1298 60.1246 27.2016 60.0122 27.2971C59.8997 27.3927 59.8078 27.5101 59.7421 27.6422C59.6763 27.7743 59.638 27.9183 59.6295 28.0656C59.621 28.2129 59.6425 28.3604 59.6927 28.4992C59.7429 28.638 59.8207 28.7651 59.9214 28.873C60.0221 28.9808 60.1437 29.0671 60.2787 29.1266C60.4137 29.1861 60.5594 29.2176 60.707 29.2191C60.8545 29.2207 61.0008 29.1923 61.1371 29.1357L62.37 28.6936C62.5053 28.6453 62.6298 28.5708 62.7363 28.4743C62.8428 28.3778 62.9291 28.2612 62.9904 28.1312C63.0517 28.0013 63.0867 27.8605 63.0934 27.7169C63.1001 27.5734 63.0784 27.4299 63.0295 27.2948C62.9281 27.0243 62.7253 26.8041 62.464 26.6809C62.2028 26.5578 61.9038 26.5414 61.6307 26.6353ZM62.6494 32.6587C62.7581 32.7538 62.8848 32.826 63.022 32.8709C63.1592 32.9159 63.3041 32.9327 63.448 32.9203C63.5919 32.9079 63.7317 32.8666 63.8593 32.7989C63.9868 32.7312 64.0993 32.6384 64.1901 32.5261L65.033 31.5236C65.1334 31.4154 65.2108 31.2881 65.2606 31.1492C65.3104 31.0103 65.3314 30.8627 65.3225 30.7154C65.3137 30.5681 65.275 30.4242 65.2088 30.2923C65.1427 30.1603 65.0505 30.0432 64.9378 29.948C64.8251 29.8528 64.6942 29.7814 64.5531 29.7382C64.412 29.695 64.2636 29.6808 64.1169 29.6966C63.9702 29.7124 63.8282 29.7578 63.6996 29.8301C63.5709 29.9023 63.4583 29.9999 63.3684 30.117L62.5168 31.118C62.3317 31.3405 62.2417 31.6272 62.2666 31.9156C62.2914 32.204 62.429 32.4711 62.6494 32.6587ZM67.2533 34.8465C67.3951 34.8719 67.5404 34.869 67.681 34.8379C67.8217 34.8069 67.9547 34.7483 68.0726 34.6655C68.1905 34.5828 68.2908 34.4775 68.3677 34.3558C68.4447 34.2341 68.4968 34.0984 68.5211 33.9564L68.7545 32.6539C68.7798 32.5129 68.777 32.3683 68.7464 32.2283C68.7158 32.0884 68.658 31.9558 68.5761 31.8383C68.4943 31.7207 68.3901 31.6204 68.2695 31.5431C68.1489 31.4658 68.0143 31.413 67.8733 31.3877C67.7323 31.3624 67.5877 31.3652 67.4477 31.3958C67.3078 31.4264 67.1752 31.4843 67.0577 31.5661C66.9401 31.6479 66.8398 31.7521 66.7625 31.8727C66.6852 31.9933 66.6324 32.128 66.6071 32.269L66.3768 33.5539C66.3476 33.6965 66.3472 33.8435 66.3757 33.9862C66.4042 34.1289 66.4609 34.2645 66.5426 34.3849C66.6243 34.5054 66.7293 34.6083 66.8513 34.6875C66.9734 34.7668 67.1101 34.8208 67.2533 34.8465ZM70.9317 33.7345C71.0287 34.0132 71.2324 34.2421 71.4981 34.3706C71.7639 34.4991 72.0697 34.5169 72.3485 34.4199C72.6273 34.3229 72.8561 34.1191 72.9847 33.8534C73.1132 33.5877 73.1309 33.2818 73.0339 33.0031L72.583 31.7686C72.5394 31.6276 72.4677 31.497 72.3721 31.3845C72.2766 31.2721 72.1592 31.1802 72.0271 31.1144C71.895 31.0487 71.7509 31.0104 71.6036 31.0019C71.4563 30.9934 71.3088 31.0149 71.17 31.0651C71.0313 31.1152 70.9041 31.193 70.7963 31.2937C70.6885 31.3945 70.6022 31.516 70.5427 31.651C70.4832 31.7861 70.4517 31.9318 70.4501 32.0793C70.4486 32.2269 70.4769 32.3732 70.5336 32.5095L70.9317 33.7345ZM76.3788 29.9509L75.3778 29.0993C75.1543 28.9164 74.8682 28.8279 74.5805 28.8527C74.2927 28.8774 74.026 29.0135 73.837 29.2319C73.7443 29.3416 73.6741 29.4686 73.6305 29.6056C73.5869 29.7425 73.5708 29.8867 73.5831 30.0299C73.5955 30.173 73.636 30.3123 73.7023 30.4398C73.7686 30.5673 73.8595 30.6804 73.9697 30.7727L74.9722 31.6155C75.0803 31.7159 75.2077 31.7933 75.3466 31.8431C75.4855 31.8929 75.6331 31.914 75.7804 31.9051C75.9277 31.8962 76.0716 31.8575 76.2035 31.7913C76.3354 31.7252 76.4525 31.633 76.5478 31.5203C76.643 31.4076 76.7144 31.2767 76.7576 31.1356C76.8008 30.9945 76.8149 30.8461 76.7991 30.6994C76.7833 30.5527 76.7379 30.4107 76.6657 30.2821C76.5934 30.1534 76.4958 30.0408 76.3788 29.9509ZM75.2284 26.2838C75.1774 26.5686 75.2415 26.862 75.4068 27.0994C75.5721 27.3369 75.8249 27.499 76.1097 27.55L77.4034 27.7819C77.6769 27.8058 77.9494 27.7265 78.1675 27.5597C78.3855 27.3929 78.5332 27.1506 78.5817 26.8803C78.6301 26.6101 78.5757 26.3315 78.4292 26.0994C78.2827 25.8672 78.0547 25.6982 77.7899 25.6257L76.4962 25.3938C76.2102 25.3449 75.9164 25.411 75.679 25.5778C75.4415 25.7445 75.2796 25.9983 75.2284 26.2838ZM74.9555 22.992C75.0269 23.1664 75.142 23.3195 75.2896 23.4366C75.4372 23.5537 75.6124 23.631 75.7985 23.6609C75.9864 23.6964 76.1805 23.681 76.3606 23.6163L77.5934 23.1742C77.8639 23.0729 78.0841 22.87 78.2073 22.6088C78.3305 22.3475 78.3468 22.0485 78.2529 21.7754C78.2038 21.6407 78.1286 21.5169 78.0316 21.4112C77.9346 21.3056 77.8177 21.2201 77.6877 21.1597C77.5576 21.0992 77.4169 21.065 77.2736 21.059C77.1303 21.053 76.9872 21.0754 76.8526 21.1247L75.6197 21.5669C75.4808 21.6144 75.3529 21.6895 75.2437 21.7877C75.1345 21.8858 75.0463 22.005 74.9843 22.1381C74.9222 22.2712 74.8877 22.4154 74.8828 22.5621C74.8778 22.7089 74.9026 22.8551 74.9555 22.992ZM73.0758 20.3025C73.2235 20.4236 73.3995 20.5051 73.5874 20.5395C73.7763 20.5748 73.9712 20.5592 74.1521 20.4943C74.333 20.4293 74.4933 20.3173 74.6165 20.1698L75.5121 19.1767C75.6973 18.9542 75.7872 18.6676 75.7624 18.3791C75.7376 18.0907 75.6 17.8237 75.3795 17.636C75.2698 17.5432 75.1428 17.473 75.0059 17.4294C74.869 17.3859 74.7248 17.3698 74.5816 17.3821C74.4384 17.3944 74.2991 17.4349 74.1716 17.5012C74.0442 17.5676 73.931 17.6584 73.8388 17.7686L72.952 18.7633C72.8589 18.8724 72.7883 18.9988 72.7441 19.1353C72.7 19.2718 72.6832 19.4156 72.6947 19.5585C72.7062 19.7015 72.7458 19.8408 72.8112 19.9684C72.8765 20.0961 72.9665 20.2096 73.0758 20.3025Z" fill="#373737"/>
</g>
<defs>
<filter id="filter0_d_717_7010" x="0.115522" y="0.972188" width="100.189" height="95.8949" filterUnits="userSpaceOnUse" color-interpolation-filters="sRGB">
<feFlood flood-opacity="0" result="BackgroundImageFix"/>
<feColorMatrix in="SourceAlpha" type="matrix" values="0 0 0 0 0 0 0 0 0 0 0 0 0 0 0 0 0 0 127 0" result="hardAlpha"/>
<feOffset dy="2.93442"/>
<feGaussianBlur stdDeviation="9.02335"/>
<feComposite in2="hardAlpha" operator="out"/>
<feColorMatrix type="matrix" values="0 0 0 0 0 0 0 0 0 0 0 0 0 0 0 0 0 0 0.1 0"/>
<feBlend mode="normal" in2="BackgroundImageFix" result="effect1_dropShadow_717_7010"/>
<feBlend mode="normal" in="SourceGraphic" in2="effect1_dropShadow_717_7010" result="shape"/>
</filter>
<clipPath id="clip0_717_7010">
<rect width="21.4589" height="21.4589" fill="white" transform="translate(60.478 11.826) rotate(10.1617)"/>
</clipPath>
</defs>
</svg>
