<svg width="21" height="21" viewBox="0 0 21 21" fill="none" xmlns="http://www.w3.org/2000/svg">
<path d="M12.1241 18.3887C12.1241 19.2792 11.3974 20 10.4998 20C9.60218 19.9999 8.87544 19.2791 8.87544 18.3887L8.87544 7.50314L4.77494 11.5708L4.51833 11.7781C3.88746 12.1911 3.03134 12.1217 2.47601 11.5708C1.84136 10.9411 1.84129 9.91991 2.47601 9.29028L9.35163 2.47237C9.6564 2.17004 10.0688 2.00006 10.4998 2C10.9308 2 11.3457 2.17 11.6506 2.47237L18.5235 9.29028L18.7325 9.54483C19.149 10.1707 19.0789 11.0198 18.5235 11.5708C17.9681 12.1217 17.1121 12.1913 16.4812 11.7781L16.2272 11.5708L12.1241 7.50051L12.1241 18.3887Z" fill="white"/>
</svg>
