<svg width="30" height="30" viewBox="0 0 30 30" fill="none" xmlns="http://www.w3.org/2000/svg">
<rect width="30" height="30" rx="15" fill="#FDC202"/>
<g clip-path="url(#clip0_2927_9229)">
<path d="M25 5V25H5V5H25Z" fill="white" fill-opacity="0.01"/>
<path fill-rule="evenodd" clip-rule="evenodd" d="M9.58325 10.0007C9.35314 10.0007 9.16659 10.1872 9.16659 10.4173C9.16659 10.6474 9.35314 10.834 9.58325 10.834H17.1317C18.4443 10.834 20.0854 10.6708 21.1958 11.5228C21.9525 12.1035 22.3243 12.9356 22.4301 13.8742C22.6026 15.4047 22.6027 17.0963 22.4301 18.6272C22.3243 19.5657 21.9525 20.3978 21.1958 20.9785C20.0854 21.8306 18.4442 21.6673 17.1317 21.6673H13.2744C11.7331 21.6673 9.67322 21.888 8.47624 20.691C7.27924 19.494 7.49988 17.4342 7.49992 15.8928V10.4173C7.49992 9.26673 8.43266 8.33398 9.58325 8.33398H18.3333C18.7935 8.33398 19.1666 8.70708 19.1666 9.16732C19.1666 9.62755 18.7935 10.0007 18.3333 10.0007H9.58325ZM16.6666 16.2507C16.6666 15.5603 17.2262 15.0007 17.9166 15.0007C18.607 15.0007 19.1666 15.5603 19.1666 16.2507C19.1666 16.941 18.607 17.5007 17.9166 17.5007C17.2262 17.5007 16.6666 16.941 16.6666 16.2507Z" fill="#F7F9FC"/>
</g>
<defs>
<clipPath id="clip0_2927_9229">
<rect width="20" height="20" fill="white" transform="translate(5 5)"/>
</clipPath>
</defs>
</svg>
