<svg width="30" height="30" viewBox="0 0 30 30" fill="none" xmlns="http://www.w3.org/2000/svg">
<rect width="30" height="30" rx="15" fill="#0092FF"/>
<path d="M15.0008 9.14687C16.5523 9.14687 18.0403 9.76321 19.1374 10.8603C20.2344 11.9574 20.8508 13.4454 20.8508 14.9969C20.8508 16.5484 20.2344 18.0364 19.1374 19.1334C18.0403 20.2305 16.5523 20.8469 15.0008 20.8469V9.14687ZM15.0008 7.79688C13.0912 7.79688 11.2599 8.55544 9.90961 9.90571C8.55935 11.256 7.80078 13.0873 7.80078 14.9969C7.80078 16.9064 8.55935 18.7378 9.90961 20.088C11.2599 21.4383 13.0912 22.1969 15.0008 22.1969C16.9103 22.1969 18.7417 21.4383 20.092 20.088C21.4422 18.7378 22.2008 16.9064 22.2008 14.9969C22.2008 13.0873 21.4422 11.256 20.092 9.90571C18.7417 8.55544 16.9103 7.79688 15.0008 7.79688Z" fill="white"/>
</svg>
