<svg width="30" height="30" viewBox="0 0 30 30" fill="none" xmlns="http://www.w3.org/2000/svg">
<rect width="30" height="30" rx="15" fill="#8B5CF6"/>
<path d="M14.4385 22.8711V21.5907C11.6446 21.4297 9.94727 19.9904 9.93848 17.8086H12.4697C12.532 18.7346 13.3086 19.4416 14.4385 19.5664V16.1211L13.4973 15.875C11.3528 15.3765 10.2053 14.1386 10.2053 12.2862C10.2053 10.1027 11.7694 8.67078 14.4385 8.45703V7.12109H15.5635V8.45703C18.2842 8.67852 19.7471 10.1354 19.7822 12.1836H17.251C17.2243 11.3377 16.6945 10.6582 15.5635 10.5664V13.8008L16.647 14.0567C18.9248 14.5552 20.0635 15.7344 20.0635 17.668C20.0635 19.9299 18.5257 21.3903 15.5635 21.5816V22.8711H14.4385ZM14.4385 13.5898V10.5664C13.4685 10.6198 12.7766 11.2157 12.7766 12.0616C12.7766 12.8456 13.3529 13.3582 14.4385 13.5898ZM15.5635 16.332V19.5664C16.9047 19.5123 17.5456 18.9013 17.5456 17.9573C17.5456 17.0932 16.9047 16.5113 15.5635 16.332Z" fill="white"/>
</svg>
