<svg width="30" height="30" viewBox="0 0 30 30" fill="none" xmlns="http://www.w3.org/2000/svg">
<rect width="30" height="30" rx="15" fill="#FF3535"/>
<path opacity="0.6" d="M12.751 7.49609H13.501C15.622 7.49609 16.6832 7.49609 17.3417 8.15534C18.001 8.81384 18.001 9.87509 18.001 11.9961V17.9961C18.001 20.1171 18.001 21.1783 17.3417 21.8368C16.6832 22.4961 15.622 22.4961 13.501 22.4961H12.751C10.63 22.4961 9.56873 22.4961 8.91023 21.8368C8.25098 21.1783 8.25098 20.1171 8.25098 17.9961V11.9961C8.25098 9.87509 8.25098 8.81384 8.91023 8.15534C9.56873 7.49609 10.63 7.49609 12.751 7.49609Z" fill="white"/>
<path opacity="0.4" d="M18.001 11.9961C18.001 10.8426 18.001 10.0033 17.8952 9.37109H18.001C19.7687 9.37109 20.653 9.37109 21.202 9.92009C21.751 10.4691 21.751 11.3533 21.751 13.1211V16.8711C21.751 18.6388 21.751 19.5223 21.202 20.0721C20.653 20.6218 19.7687 20.6211 18.001 20.6211H17.8952C18.001 19.9888 18.001 19.1496 18.001 17.9961V11.9961Z" fill="white"/>
<path fill-rule="evenodd" clip-rule="evenodd" d="M20.6485 14.599C20.7538 14.7044 20.813 14.8474 20.813 14.9965C20.813 15.1455 20.7538 15.2885 20.6485 15.394L19.1485 16.894C19.0419 16.9933 18.9008 17.0474 18.7551 17.0448C18.6094 17.0423 18.4703 16.9832 18.3673 16.8802C18.2642 16.7771 18.2052 16.6381 18.2026 16.4923C18.2 16.3466 18.2541 16.2056 18.3535 16.099L18.8935 15.559H13.501C13.3518 15.559 13.2087 15.4997 13.1032 15.3942C12.9977 15.2887 12.9385 15.1456 12.9385 14.9965C12.9385 14.8473 12.9977 14.7042 13.1032 14.5987C13.2087 14.4932 13.3518 14.434 13.501 14.434H18.8935L18.3535 13.894C18.2982 13.8425 18.2539 13.7804 18.2231 13.7114C18.1924 13.6424 18.1759 13.5679 18.1745 13.4923C18.1732 13.4168 18.1871 13.3418 18.2154 13.2718C18.2437 13.2017 18.2858 13.1381 18.3392 13.0847C18.3926 13.0313 18.4562 12.9892 18.5263 12.9609C18.5963 12.9326 18.6713 12.9187 18.7469 12.92C18.8224 12.9213 18.8969 12.9379 18.9659 12.9686C19.0349 12.9994 19.097 13.0437 19.1485 13.099L20.6485 14.599Z" fill="white"/>
</svg>
