<svg width="20" height="20" viewBox="0 0 20 20" fill="none" xmlns="http://www.w3.org/2000/svg">
<path fill-rule="evenodd" clip-rule="evenodd" d="M10.0006 3.50678C9.864 3.42212 9.70299 3.37324 9.53055 3.37324C9.03745 3.37324 8.6377 3.77298 8.6377 4.26609C8.6377 5.01875 9.24785 5.62891 10.0006 5.62891C10.7531 5.62891 11.3633 5.01875 11.3633 4.26609C11.3633 3.77298 10.9636 3.37324 10.4704 3.37324C10.298 3.37324 10.137 3.42212 10.0006 3.50678Z" fill="black"/>
<path fill-rule="evenodd" clip-rule="evenodd" d="M10.0006 5.02661C9.864 5.11128 9.703 5.16016 9.53055 5.16016C9.03745 5.16016 8.6377 4.76041 8.6377 4.2673C8.6377 3.51464 9.24785 2.9045 10.0006 2.9045C10.7531 2.9045 11.3633 3.51464 11.3633 4.2673C11.3633 4.76041 10.9636 5.16016 10.4704 5.16016C10.298 5.16016 10.137 5.11128 10.0006 5.02661Z" fill="black"/>
<path fill-rule="evenodd" clip-rule="evenodd" d="M10.0006 9.23726C9.864 9.15259 9.70299 9.10372 9.53055 9.10372C9.03745 9.10372 8.6377 9.50346 8.6377 9.99657C8.6377 10.7492 9.24785 11.3594 10.0006 11.3594C10.7531 11.3594 11.3633 10.7492 11.3633 9.99657C11.3633 9.50346 10.9636 9.10372 10.4704 9.10372C10.298 9.10372 10.137 9.15259 10.0006 9.23726Z" fill="black"/>
<path fill-rule="evenodd" clip-rule="evenodd" d="M10.0006 10.7571C9.864 10.8418 9.703 10.8906 9.53055 10.8906C9.03745 10.8906 8.6377 10.4909 8.6377 9.99777C8.6377 9.24511 9.24785 8.63497 10.0006 8.63497C10.7531 8.63497 11.3633 9.24511 11.3633 9.99777C11.3633 10.4909 10.9636 10.8906 10.4704 10.8906C10.298 10.8906 10.137 10.8418 10.0006 10.7571Z" fill="black"/>
<path fill-rule="evenodd" clip-rule="evenodd" d="M10.0006 14.9755C9.864 14.8909 9.70299 14.842 9.53055 14.842C9.03745 14.842 8.6377 15.2417 8.6377 15.7348C8.6377 16.4875 9.24785 17.0977 10.0006 17.0977C10.7531 17.0977 11.3633 16.4875 11.3633 15.7348C11.3633 15.2417 10.9636 14.842 10.4704 14.842C10.298 14.842 10.137 14.8909 10.0006 14.9755Z" fill="black"/>
<path fill-rule="evenodd" clip-rule="evenodd" d="M10.0006 16.4954C9.864 16.58 9.703 16.6289 9.53055 16.6289C9.03745 16.6289 8.6377 16.2292 8.6377 15.736C8.6377 14.9834 9.24785 14.3732 10.0006 14.3732C10.7531 14.3732 11.3633 14.9834 11.3633 15.736C11.3633 16.2292 10.9636 16.6289 10.4704 16.6289C10.298 16.6289 10.137 16.58 10.0006 16.4954Z" fill="black"/>
</svg>
