<svg width="30" height="30" viewBox="0 0 30 30" fill="none" xmlns="http://www.w3.org/2000/svg">
<rect width="30" height="30" rx="15" fill="#6366F1"/>
<path d="M9 11.5V12.5C9 14.1569 10.3431 15.5 12 15.5H20.5C21.3284 15.5 22 14.8284 22 14V10C22 9.17157 21.3284 8.5 20.5 8.5H12C10.3431 8.5 9 9.84315 9 11.5Z" fill="white"/>
<path d="M9 12.5V18.5C9 20.1569 10.3431 21.5 12 21.5H20.5C21.3284 21.5 22 20.8284 22 20V14C22 14.8284 21.3284 15.5 20.5 15.5H12C10.3431 15.5 9 14.1569 9 12.5Z" fill="white" opacity="0.6"/>
<path d="M16.5 13C17.3284 13 18 12.3284 18 11.5C18 10.6716 17.3284 10 16.5 10C15.6716 10 15 10.6716 15 11.5C15 12.3284 15.6716 13 16.5 13Z" fill="#6366F1"/>
</svg>


