<svg width="202" height="202" viewBox="0 0 202 202" fill="none" xmlns="http://www.w3.org/2000/svg">
<g clip-path="url(#clip0_3091_148)">
<rect width="202" height="202" rx="101" fill="white"/>
<g clip-path="url(#clip1_3091_148)">
<path d="M150.64 71.0038H134.641C132.792 71.0038 131.018 70.2124 129.773 68.818L123.282 61.507C122.301 60.4141 120.943 59.7734 119.471 59.7734C118 59.7734 116.641 60.4141 115.66 61.507L110.075 67.8005C108.264 69.8355 105.623 71.0415 102.906 71.0415H15.323C12.8325 78.0887 11.2099 85.5881 10.5684 93.3891H93.2455C94.7171 93.3891 96.0756 92.7861 97.0944 91.7309L104.792 83.7039C105.736 82.6864 107.094 82.1211 108.453 82.1211H108.755C110.226 82.1211 111.585 82.7617 112.566 83.8546L119.056 91.1656C120.301 92.56 122.075 93.3514 123.924 93.3514H191.394C190.752 85.5882 189.13 78.051 186.639 70.9661L150.64 71.0038Z" fill="black"/>
<path d="M60.6047 140.421C62.0763 140.421 63.4348 139.818 64.4536 138.763L72.1515 130.736C73.1327 129.719 74.4534 129.153 75.8496 129.153H76.1514C77.6231 129.153 79.0193 129.794 79.9627 130.849L86.4531 138.16C87.6983 139.555 89.4719 140.346 91.3209 140.346H182.79C186.224 133.261 188.715 125.686 190.224 117.734H102.415C100.566 117.734 98.7924 116.943 97.5471 115.549L91.0567 108.313C90.0756 107.22 88.7172 106.617 87.2455 106.617C85.7738 106.617 84.3776 107.258 83.4343 108.313L77.8495 114.607C76.0382 116.679 73.3968 117.848 70.6421 117.848H11.8135C13.3229 125.799 15.8134 133.374 19.2472 140.459L60.6047 140.421Z" fill="black"/>
<path d="M125.471 46.5441C126.943 46.5441 128.301 45.9411 129.32 44.8859L137.018 36.8589C137.961 35.8413 139.32 35.2761 140.716 35.2761H141.018C142.49 35.2761 143.848 35.9167 144.829 37.0096L151.319 44.3583C152.565 45.7527 154.338 46.5441 156.187 46.5441H173.583C157.017 24.5356 130.679 10.3281 101.019 10.3281C71.3593 10.3281 44.9826 24.5356 28.417 46.5441H125.471Z" fill="black"/>
<path d="M90.5666 162.841H66.7937C64.9447 162.841 63.1711 162.05 61.9259 160.655L55.4355 153.344C54.4544 152.251 53.0959 151.648 51.6243 151.648C50.1526 151.648 48.7564 152.289 47.813 153.344L42.2283 159.638C40.417 161.711 37.7756 162.879 35.0209 162.879H34.6436C51.2092 180.591 74.7935 191.708 101.019 191.708C127.245 191.708 150.792 180.591 167.395 162.879L90.5666 162.841Z" fill="black"/>
</g>
</g>
<defs>
<clipPath id="clip0_3091_148">
<rect width="202" height="202" fill="white"/>
</clipPath>
<clipPath id="clip1_3091_148">
<rect width="180.863" height="181.344" fill="white" transform="translate(10.5684 10.3281)"/>
</clipPath>
</defs>
</svg>
