<svg width="100" height="100" viewBox="0 0 100 100" fill="none" xmlns="http://www.w3.org/2000/svg">
<rect width="100" height="100" fill="#DB2BEF"/>
<path d="M24.1665 36.9542C24.1665 34.6732 24.1665 33.5339 24.3473 32.5832C24.7328 30.542 25.7246 28.6643 27.1933 27.1952C28.6619 25.7261 30.5393 24.7337 32.5804 24.3476C33.5337 24.1667 34.6755 24.1667 36.954 24.1667C37.9512 24.1667 38.4523 24.1667 38.9328 24.2107C41.0022 24.405 42.9649 25.2189 44.5645 26.546C44.9365 26.8534 45.2878 27.2047 45.9957 27.9126L47.4165 29.3334C49.5245 31.4414 50.5785 32.4954 51.8392 33.1955C52.5321 33.5817 53.2671 33.8868 54.0298 34.1048C55.4197 34.5001 56.9103 34.5001 59.8888 34.5001H60.855C67.6543 34.5001 71.0566 34.5001 73.2653 36.4892C73.4703 36.6701 73.6632 36.863 73.844 37.0679C75.8332 39.2767 75.8332 42.6789 75.8332 49.4782V55.1667C75.8332 64.9085 75.8332 69.7807 72.8055 72.8057C69.7778 75.8308 64.9083 75.8334 55.1665 75.8334H44.8332C35.0914 75.8334 30.2193 75.8334 27.1942 72.8057C24.1691 69.7781 24.1665 64.9085 24.1665 55.1667V36.9542Z" fill="white"/>
<path opacity="0.5" d="M70.6666 35.1148C70.6666 34.345 70.6537 33.8877 70.602 33.4873C70.3789 31.7961 69.604 30.2258 68.3976 29.0198C67.1911 27.8139 65.6205 27.0396 63.9292 26.8172C63.4255 26.75 62.8262 26.75 61.6249 26.75H44.8022C45.1019 27.0187 45.4403 27.3545 45.9957 27.9125L47.4166 29.3333C49.5246 31.4413 50.5786 32.4953 51.8392 33.1954C52.533 33.5818 53.2689 33.8869 54.0325 34.1048C55.4197 34.5 56.9103 34.5 59.8915 34.5H60.8551C65.4534 34.5 68.494 34.5 70.6666 35.1148Z" fill="white"/>
<path opacity="0.15" fill-rule="evenodd" clip-rule="evenodd" d="M50.646 44.8333C50.646 44.3194 50.8501 43.8266 51.2135 43.4632C51.5768 43.0999 52.0696 42.8958 52.5835 42.8958H65.5002C66.014 42.8958 66.5068 43.0999 66.8702 43.4632C67.2335 43.8266 67.4377 44.3194 67.4377 44.8333C67.4377 45.3471 67.2335 45.8399 66.8702 46.2033C66.5068 46.5666 66.014 46.7708 65.5002 46.7708H52.5835C52.0696 46.7708 51.5768 46.5666 51.2135 46.2033C50.8501 45.8399 50.646 45.3471 50.646 44.8333Z" fill="black"/>
</svg>
