<svg width="100" height="100" viewBox="0 0 100 100" fill="none" xmlns="http://www.w3.org/2000/svg">
<rect width="100" height="100" fill="#F97316"/>
<path opacity="0.3" d="M31.3335 39.3333H68.6668V34H31.3335V39.3333Z" fill="white"/>
<path d="M68.6667 28.6666H66V23.3333H60.6667V28.6666H39.3333V23.3333H34V28.6666H31.3333C28.3733 28.6666 26.0267 31.0666 26.0267 33.9999L26 71.3332C26 72.7477 26.5619 74.1043 27.5621 75.1045C28.5623 76.1047 29.9188 76.6666 31.3333 76.6666H68.6667C71.6 76.6666 74 74.2666 74 71.3332V33.9999C74 31.0666 71.6 28.6666 68.6667 28.6666ZM68.6667 71.3332H31.3333V44.6666H68.6667V71.3332ZM68.6667 39.3333H31.3333V33.9999H68.6667V39.3333ZM50 52.6666H63.3333V65.9999H50V52.6666Z" fill="white"/>
</svg>
