<svg width="100" height="100" viewBox="0 0 100 100" fill="none" xmlns="http://www.w3.org/2000/svg">
<rect width="100" height="100" fill="#FFAC00"/>
<path opacity="0.5" d="M42.9111 32.4135C46.9344 27.0188 52.9836 25.4435 58.5483 26.9593C64.5549 28.5941 69.8363 33.7536 71.5901 40.939C71.6808 41.3073 71.7592 41.6756 71.8253 42.044C69.2935 41.1418 66.5397 41.0723 63.9656 41.8456C60.3191 39.1483 55.8028 38.695 51.7879 40.174C46.7588 42.0298 42.8318 46.736 41.9223 52.6576C40.7606 60.2396 45.3789 67.051 51.9098 72.8423L53.0091 73.7943C52.1223 73.8567 51.2213 73.7178 50.3599 73.5336C49.9174 73.4384 49.4771 73.3326 49.0396 73.2163L47.5181 72.7913C33.9918 68.9862 24.9364 63.0333 22.3383 54.1366C20.2643 47.0363 22.2589 39.9275 26.6449 35.5075C30.7079 31.4133 36.7316 29.753 42.9111 32.4135ZM47.5238 53.5161C48.7364 45.6055 57.8853 41.7068 62.5829 48.4955C62.628 48.5586 62.696 48.6014 62.7724 48.6146C62.8488 48.6279 62.9273 48.6105 62.9909 48.5663C69.7258 43.795 76.9876 50.5865 75.4208 58.4348C74.5141 62.987 70.2924 66.7648 62.7558 69.7681L61.5233 70.2498L60.7781 70.5558C60.1349 70.808 59.4549 71.0092 58.8401 70.9015C58.2281 70.7938 57.6586 70.3688 57.1401 69.9155L56.2618 69.1222C49.7073 63.4819 46.7947 58.2799 47.5238 53.5161Z" fill="white"/>
<path d="M42.9111 32.4135C46.9344 27.0188 52.9836 25.4435 58.5483 26.9593C64.5549 28.5941 69.8363 33.7536 71.5901 40.939C71.6808 41.3073 71.7592 41.6756 71.8253 42.044C69.2935 41.1418 66.5397 41.0723 63.9656 41.8456C60.3191 39.1483 55.8028 38.695 51.7879 40.174C46.7588 42.0298 42.8318 46.736 41.9223 52.6576C40.7606 60.2397 45.3789 67.051 51.9098 72.8423L53.0091 73.7943C52.1223 73.8566 51.2213 73.7178 50.3599 73.5336C49.9174 73.4384 49.4771 73.3326 49.0396 73.2163L47.5181 72.7913C33.9918 68.9861 24.9364 63.0333 22.3383 54.1366C20.2643 47.0363 22.2589 39.9275 26.6449 35.5075C30.7079 31.4133 36.7316 29.753 42.9111 32.4135Z" fill="white"/>
</svg>
