<svg width="100" height="100" viewBox="0 0 100 100" fill="none" xmlns="http://www.w3.org/2000/svg">
<rect width="100" height="100" fill="#0092FF"/>
<path d="M35.9989 49.6652L40.5814 51.1927C43.6104 52.2002 45.1216 52.7072 46.2071 53.7927C47.2926 54.8782 47.7996 56.3927 48.8071 59.4152L50.3346 63.9977C52.8826 71.6482 54.1566 75.4702 56.4999 75.4702C58.8399 75.4702 60.1171 71.6482 62.6651 63.9977L71.8886 36.3337C73.6826 30.9517 74.5796 28.2607 73.1594 26.8404C71.7391 25.4202 69.0481 26.3172 63.6694 28.1079L35.9956 37.3379C28.3549 39.8827 24.5264 41.1567 24.5264 43.4999C24.5264 45.8432 28.3516 47.1172 35.9989 49.6652Z" fill="white" fill-opacity="0.25"/>
<path d="M35.9989 49.6652L40.5814 51.1927C43.6104 52.2002 45.1216 52.7072 46.2071 53.7927C47.2926 54.8782 47.7996 56.3927 48.8071 59.4152L50.3346 63.9977C52.8826 71.6482 54.1566 75.4702 56.4999 75.4702C58.8399 75.4702 60.1171 71.6482 62.6651 63.9977L71.8886 36.3337C73.6826 30.9517 74.5796 28.2607 73.1594 26.8404C71.7391 25.4202 69.0481 26.3172 63.6694 28.1079L35.9956 37.3379C28.3549 39.8827 24.5264 41.1567 24.5264 43.4999C24.5264 45.8432 28.3516 47.1172 35.9989 49.6652Z" fill="white"/>
<path opacity="0.15" d="M41.9594 55.9865L35.2579 53.7537C34.789 53.5974 34.2906 53.5501 33.8006 53.6154C33.3106 53.6808 32.842 53.857 32.4304 54.1307L28.8879 56.4902C28.4686 56.7696 28.1394 57.1648 27.9406 57.6278C27.7417 58.0908 27.6816 58.6016 27.7677 59.0981C27.8538 59.5946 28.0823 60.0554 28.4254 60.4244C28.7685 60.7934 29.2115 61.0548 29.7004 61.1767L36.0542 62.7627C36.3401 62.8341 36.6012 62.9819 36.8096 63.1903C37.018 63.3987 37.1658 63.6598 37.2372 63.9457L38.8232 70.2995C38.9451 70.7884 39.2064 71.2313 39.5755 71.5745C39.9445 71.9176 40.4053 72.1461 40.9018 72.2322C41.3983 72.3182 41.9091 72.2582 42.3721 72.0593C42.835 71.8604 43.2303 71.5313 43.5097 71.112L45.8692 67.5695C46.1429 67.1579 46.3191 66.6893 46.3844 66.1993C46.4498 65.7093 46.4025 65.2109 46.2462 64.742L44.0134 58.0405C43.8538 57.5622 43.5851 57.1277 43.2287 56.7712C42.8722 56.4147 42.4376 56.1461 41.9594 55.9865Z" fill="white"/>
</svg>
