<svg width="100" height="100" viewBox="0 0 100 100" fill="none" xmlns="http://www.w3.org/2000/svg">
<rect width="100" height="100" fill="#00CE2B"/>
<path d="M77.5288 41.5437H21.6562V35.9475C21.6562 32.4024 24.4245 29.4892 27.9192 28.8936C28.5556 28.7851 29.1854 28.6715 29.8263 28.5559C34.1291 27.7796 38.9333 26.9128 49.5925 26.9128C59.6177 26.9128 67.5637 27.8677 72.3789 28.6469C75.4213 29.1393 77.5288 31.8022 77.5288 34.8843V41.5437Z" fill="white"/>
<path fill-rule="evenodd" clip-rule="evenodd" d="M21.6562 41.5437H77.5288V64.1605C77.5288 67.6476 74.8057 70.5111 71.3678 71.0934C70.6969 71.2068 70.0339 71.3264 69.3586 71.4486C65.0558 72.2245 60.2517 73.0916 49.5925 73.0916C38.9333 73.0916 34.1291 72.2245 29.8263 71.4486C29.1511 71.3264 28.4883 71.2068 27.8171 71.0934C24.3793 70.5111 21.6563 67.6476 21.6563 64.1605L21.6562 41.5437Z" fill="white"/>
<path opacity="0.15" fill-rule="evenodd" clip-rule="evenodd" d="M54.4966 60.8623C54.4966 59.3337 55.7358 58.0945 57.2644 58.0945H65.2237C66.7525 58.0945 67.9916 59.3337 67.9916 60.8623C67.9916 62.391 66.7525 63.6303 65.2237 63.6303H57.2644C55.7358 63.6303 54.4966 62.391 54.4966 60.8623Z" fill="black"/>
</svg>
